<svg xmlns="http://www.w3.org/2000/svg" width="43" height="43" viewBox="0 0 43 43">
  <g id="rate_estimate" transform="translate(20419 9936)">
    <g id="Subtraction_1" data-name="Subtraction 1" transform="translate(-20419 -9936)" fill="none">
      <path d="M22.062,39H2a2,2,0,0,1-2-2V2A2,2,0,0,1,2,0H27a2,2,0,0,1,2,2V18.041A12,12,0,0,0,22.06,39Z" stroke="none"/>
      <path d="M 19.7536563873291 37.99970245361328 C 17.9838695526123 35.7314567565918 17 32.91867828369141 17 29.99970054626465 C 17 23.59737205505371 21.76176261901855 18.12489891052246 27.99980163574219 17.15360832214355 L 27.99980163574219 1.999801278114319 C 27.99980163574219 1.448511242866516 27.55129051208496 1.000001192092896 27 1.000001192092896 L 1.999800801277161 1.000001192092896 C 1.448510766029358 1.000001192092896 1.000000834465027 1.448511242866516 1.000000834465027 1.999801278114319 L 1.000000834465027 36.99990081787109 C 1.000000834465027 37.55118942260742 1.448510766029358 37.99970245361328 1.999800801277161 37.99970245361328 L 19.7536563873291 37.99970245361328 M 22.06227111816406 38.99970245361328 L 22.05963134765625 38.99970245361328 L 1.999800801277161 38.99970245361328 C 0.8971108198165894 38.99970245361328 8.178710686479462e-07 38.10259246826172 8.178710686479462e-07 36.99990081787109 L 8.178710686479462e-07 1.999801278114319 C 8.178710686479462e-07 0.8971112370491028 0.8971108198165894 1.226806602971919e-06 1.999800801277161 1.226806602971919e-06 L 27 1.226806602971919e-06 C 28.10269165039063 1.226806602971919e-06 28.99980163574219 0.8971112370491028 28.99980163574219 1.999801278114319 L 28.99980163574219 18.04107093811035 C 22.8312816619873 18.55034065246582 18 23.80276107788086 18 29.99970054626465 C 18 33.43947219848633 19.47992134094238 36.71920013427734 22.0602912902832 38.99795150756836 L 22.06227111816406 38.99970245361328 Z" stroke="none" fill="#3d3d4a"/>
    </g>
    <g id="Rectangle_456" data-name="Rectangle 456" transform="translate(-20413 -9931)" fill="none" stroke="#3d3d4a" stroke-width="1">
      <rect width="17" height="8" rx="1" stroke="none"/>
      <rect x="0.5" y="0.5" width="16" height="7" rx="0.5" fill="none"/>
    </g>
    <rect id="Rectangle_457" data-name="Rectangle 457" width="4" height="3" rx="1.5" transform="translate(-20415 -9919)" fill="#3d3d4a"/>
    <rect id="Rectangle_460" data-name="Rectangle 460" width="4" height="3" rx="1.5" transform="translate(-20415 -9912)" fill="#3d3d4a"/>
    <rect id="Rectangle_461" data-name="Rectangle 461" width="4" height="3" rx="1.5" transform="translate(-20409 -9912)" fill="#3d3d4a"/>
    <rect id="Rectangle_462" data-name="Rectangle 462" width="4" height="3" rx="1.5" transform="translate(-20409 -9906)" fill="#3d3d4a"/>
    <rect id="Rectangle_463" data-name="Rectangle 463" width="4" height="3" rx="1.5" transform="translate(-20415 -9906)" fill="#3d3d4a"/>
    <rect id="Rectangle_458" data-name="Rectangle 458" width="4" height="3" rx="1.5" transform="translate(-20409 -9919)" fill="#3d3d4a"/>
    <rect id="Rectangle_459" data-name="Rectangle 459" width="4" height="3" rx="1.5" transform="translate(-20402 -9919)" fill="#3d3d4a"/>
    <g id="Ellipse_109" data-name="Ellipse 109" transform="translate(-20402 -9919)" fill="none" stroke="#3d3d4a" stroke-width="1">
      <circle cx="13" cy="13" r="13" stroke="none"/>
      <circle cx="13" cy="13" r="12.5" fill="none"/>
    </g>
    <path id="Path_1869" data-name="Path 1869" d="M6-2.783a1.415,1.415,0,0,0-.4-1.029,3.457,3.457,0,0,0-1.318-.732,10.369,10.369,0,0,1-1.436-.6,2.919,2.919,0,0,1-1.707-2.71,2.8,2.8,0,0,1,.74-2,3.152,3.152,0,0,1,2.007-.93v-1.6H5.061v1.611a2.9,2.9,0,0,1,1.97,1.08,3.7,3.7,0,0,1,.7,2.333H5.955a2.308,2.308,0,0,0-.414-1.454,1.349,1.349,0,0,0-1.124-.531,1.518,1.518,0,0,0-1.1.381,1.445,1.445,0,0,0-.4,1.091,1.367,1.367,0,0,0,.392,1.022,3.811,3.811,0,0,0,1.329.729,11.236,11.236,0,0,1,1.472.637,3.765,3.765,0,0,1,.9.67,2.663,2.663,0,0,1,.564.868,3.065,3.065,0,0,1,.2,1.15A2.736,2.736,0,0,1,7.02-.791,3.336,3.336,0,0,1,4.907.117V1.545H3.743V.125a3.348,3.348,0,0,1-2.23-1.04,3.379,3.379,0,0,1-.78-2.329h1.78a2.032,2.032,0,0,0,.465,1.428,1.7,1.7,0,0,0,1.315.505,1.808,1.808,0,0,0,1.271-.4A1.387,1.387,0,0,0,6-2.783Z" transform="translate(-20393 -9901)" fill="#3d3d4a"/>
  </g>
</svg>
