<svg width="176" height="17" viewBox="0 0 176 17" fill="none" xmlns="http://www.w3.org/2000/svg">
<path d="M119.694 12.859H121.794V6.545C121.794 6.32567 121.801 6.097 121.815 5.859L120.198 7.224C120.128 7.28 120.056 7.31733 119.981 7.336C119.911 7.35 119.843 7.35 119.778 7.336C119.717 7.322 119.661 7.301 119.61 7.273C119.563 7.24033 119.526 7.20533 119.498 7.168L119.029 6.51L122.067 3.899H123.292V12.859H125.189V14H119.694V12.859ZM134.01 3.92V4.585C134.01 4.781 133.989 4.93967 133.947 5.061C133.905 5.18233 133.863 5.285 133.821 5.369L129.838 13.475C129.768 13.6243 129.668 13.7503 129.537 13.853C129.411 13.951 129.243 14 129.033 14H127.948L132.008 6.027C132.083 5.88233 132.157 5.75167 132.232 5.635C132.307 5.51833 132.391 5.40633 132.484 5.299H127.451C127.358 5.299 127.276 5.264 127.206 5.194C127.136 5.11933 127.101 5.03533 127.101 4.942V3.92H134.01ZM135.607 13.132C135.607 12.9967 135.631 12.8707 135.677 12.754C135.729 12.6327 135.796 12.5277 135.88 12.439C135.969 12.3503 136.072 12.2803 136.188 12.229C136.31 12.1777 136.438 12.152 136.573 12.152C136.709 12.152 136.835 12.1777 136.951 12.229C137.073 12.2803 137.178 12.3503 137.266 12.439C137.355 12.5277 137.425 12.6327 137.476 12.754C137.528 12.8707 137.553 12.9967 137.553 13.132C137.553 13.272 137.528 13.4003 137.476 13.517C137.425 13.6337 137.355 13.7363 137.266 13.825C137.178 13.9137 137.073 13.9813 136.951 14.028C136.835 14.0793 136.709 14.105 136.573 14.105C136.438 14.105 136.31 14.0793 136.188 14.028C136.072 13.9813 135.969 13.9137 135.88 13.825C135.796 13.7363 135.729 13.6337 135.677 13.517C135.631 13.4003 135.607 13.272 135.607 13.132ZM135.607 8.029C135.607 7.89367 135.631 7.76767 135.677 7.651C135.729 7.52967 135.796 7.42467 135.88 7.336C135.969 7.24733 136.072 7.17733 136.188 7.126C136.31 7.07467 136.438 7.049 136.573 7.049C136.709 7.049 136.835 7.07467 136.951 7.126C137.073 7.17733 137.178 7.24733 137.266 7.336C137.355 7.42467 137.425 7.52967 137.476 7.651C137.528 7.76767 137.553 7.89367 137.553 8.029C137.553 8.169 137.528 8.29733 137.476 8.414C137.425 8.53067 137.355 8.63333 137.266 8.722C137.178 8.81067 137.073 8.88067 136.951 8.932C136.835 8.97867 136.709 9.002 136.573 9.002C136.438 9.002 136.31 8.97867 136.188 8.932C136.072 8.88067 135.969 8.81067 135.88 8.722C135.796 8.63333 135.729 8.53067 135.677 8.414C135.631 8.29733 135.607 8.169 135.607 8.029ZM146.372 8.96C146.372 9.842 146.276 10.605 146.085 11.249C145.898 11.893 145.639 12.4273 145.308 12.852C144.977 13.2767 144.587 13.5917 144.139 13.797C143.691 14.0023 143.208 14.105 142.69 14.105C142.172 14.105 141.689 14.0023 141.241 13.797C140.793 13.5917 140.403 13.2767 140.072 12.852C139.745 12.4273 139.489 11.893 139.302 11.249C139.115 10.605 139.022 9.842 139.022 8.96C139.022 8.078 139.115 7.315 139.302 6.671C139.489 6.02233 139.745 5.488 140.072 5.068C140.403 4.64333 140.793 4.32833 141.241 4.123C141.689 3.913 142.172 3.808 142.69 3.808C143.208 3.808 143.691 3.913 144.139 4.123C144.587 4.32833 144.977 4.64333 145.308 5.068C145.639 5.488 145.898 6.02233 146.085 6.671C146.276 7.315 146.372 8.078 146.372 8.96ZM144.818 8.96C144.818 8.21333 144.757 7.59267 144.636 7.098C144.519 6.59867 144.363 6.19967 144.167 5.901C143.971 5.60233 143.745 5.39 143.488 5.264C143.231 5.138 142.965 5.075 142.69 5.075C142.41 5.075 142.142 5.138 141.885 5.264C141.633 5.39 141.409 5.60233 141.213 5.901C141.017 6.19967 140.861 6.59867 140.744 7.098C140.627 7.59267 140.569 8.21333 140.569 8.96C140.569 9.70667 140.627 10.3297 140.744 10.829C140.861 11.3237 141.017 11.7203 141.213 12.019C141.409 12.3177 141.633 12.53 141.885 12.656C142.142 12.782 142.41 12.845 142.69 12.845C142.965 12.845 143.231 12.782 143.488 12.656C143.745 12.53 143.971 12.3177 144.167 12.019C144.363 11.7203 144.519 11.3237 144.636 10.829C144.757 10.3297 144.818 9.70667 144.818 8.96ZM151.189 3.808C151.637 3.808 152.048 3.87567 152.421 4.011C152.799 4.14167 153.123 4.33067 153.394 4.578C153.669 4.82067 153.884 5.117 154.038 5.467C154.192 5.817 154.269 6.21133 154.269 6.65C154.269 7.02333 154.213 7.36867 154.101 7.686C153.994 8.00333 153.847 8.30667 153.66 8.596C153.473 8.88533 153.254 9.16767 153.002 9.443C152.755 9.71367 152.493 9.989 152.218 10.269L149.782 12.761C149.983 12.7097 150.183 12.6677 150.384 12.635C150.589 12.5977 150.783 12.579 150.965 12.579H153.926C154.089 12.579 154.218 12.628 154.311 12.726C154.404 12.8193 154.451 12.9407 154.451 13.09V14H147.633V13.489C147.633 13.3863 147.654 13.279 147.696 13.167C147.738 13.055 147.806 12.9523 147.899 12.859L151.035 9.716C151.301 9.45 151.537 9.19567 151.742 8.953C151.952 8.71033 152.129 8.46767 152.274 8.225C152.423 7.98233 152.535 7.73733 152.61 7.49C152.689 7.238 152.729 6.97433 152.729 6.699C152.729 6.433 152.687 6.19967 152.603 5.999C152.524 5.79367 152.412 5.62567 152.267 5.495C152.127 5.35967 151.957 5.25933 151.756 5.194C151.56 5.124 151.343 5.089 151.105 5.089C150.876 5.089 150.664 5.12167 150.468 5.187C150.277 5.25233 150.104 5.34333 149.95 5.46C149.801 5.57667 149.675 5.71667 149.572 5.88C149.474 6.03867 149.402 6.21367 149.355 6.405C149.285 6.59633 149.194 6.72467 149.082 6.79C148.975 6.85533 148.816 6.86933 148.606 6.832L147.815 6.692C147.885 6.216 148.016 5.79833 148.207 5.439C148.403 5.07967 148.648 4.781 148.942 4.543C149.236 4.30033 149.572 4.11833 149.95 3.997C150.333 3.871 150.746 3.808 151.189 3.808ZM156.244 13.132C156.244 12.9967 156.267 12.8707 156.314 12.754C156.365 12.6327 156.433 12.5277 156.517 12.439C156.606 12.3503 156.708 12.2803 156.825 12.229C156.946 12.1777 157.075 12.152 157.21 12.152C157.345 12.152 157.471 12.1777 157.588 12.229C157.709 12.2803 157.814 12.3503 157.903 12.439C157.992 12.5277 158.062 12.6327 158.113 12.754C158.164 12.8707 158.19 12.9967 158.19 13.132C158.19 13.272 158.164 13.4003 158.113 13.517C158.062 13.6337 157.992 13.7363 157.903 13.825C157.814 13.9137 157.709 13.9813 157.588 14.028C157.471 14.0793 157.345 14.105 157.21 14.105C157.075 14.105 156.946 14.0793 156.825 14.028C156.708 13.9813 156.606 13.9137 156.517 13.825C156.433 13.7363 156.365 13.6337 156.314 13.517C156.267 13.4003 156.244 13.272 156.244 13.132ZM156.244 8.029C156.244 7.89367 156.267 7.76767 156.314 7.651C156.365 7.52967 156.433 7.42467 156.517 7.336C156.606 7.24733 156.708 7.17733 156.825 7.126C156.946 7.07467 157.075 7.049 157.21 7.049C157.345 7.049 157.471 7.07467 157.588 7.126C157.709 7.17733 157.814 7.24733 157.903 7.336C157.992 7.42467 158.062 7.52967 158.113 7.651C158.164 7.76767 158.19 7.89367 158.19 8.029C158.19 8.169 158.164 8.29733 158.113 8.414C158.062 8.53067 157.992 8.63333 157.903 8.722C157.814 8.81067 157.709 8.88067 157.588 8.932C157.471 8.97867 157.345 9.002 157.21 9.002C157.075 9.002 156.946 8.97867 156.825 8.932C156.708 8.88067 156.606 8.81067 156.517 8.722C156.433 8.63333 156.365 8.53067 156.314 8.414C156.267 8.29733 156.244 8.169 156.244 8.029ZM163.474 3.808C163.922 3.808 164.328 3.87333 164.692 4.004C165.06 4.13 165.375 4.30733 165.637 4.536C165.903 4.76467 166.106 5.03767 166.246 5.355C166.39 5.67233 166.463 6.02 166.463 6.398C166.463 7.03733 166.313 7.539 166.015 7.903C165.721 8.26233 165.315 8.52367 164.797 8.687C166.052 9.05567 166.68 9.84433 166.68 11.053C166.68 11.5383 166.589 11.97 166.407 12.348C166.225 12.726 165.977 13.0457 165.665 13.307C165.357 13.5683 164.995 13.769 164.58 13.909C164.169 14.0443 163.733 14.112 163.271 14.112C162.753 14.112 162.305 14.0513 161.927 13.93C161.549 13.804 161.222 13.6267 160.947 13.398C160.676 13.1647 160.45 12.8847 160.268 12.558C160.086 12.2313 159.932 11.865 159.806 11.459L160.457 11.186C160.629 11.1113 160.793 11.0903 160.947 11.123C161.105 11.1557 161.22 11.242 161.29 11.382C161.364 11.5313 161.448 11.6923 161.542 11.865C161.635 12.033 161.754 12.1893 161.899 12.334C162.048 12.474 162.23 12.593 162.445 12.691C162.664 12.7843 162.932 12.831 163.25 12.831C163.572 12.831 163.852 12.7797 164.09 12.677C164.332 12.5697 164.533 12.4343 164.692 12.271C164.855 12.103 164.976 11.9163 165.056 11.711C165.135 11.5057 165.175 11.3027 165.175 11.102C165.175 10.85 165.144 10.619 165.084 10.409C165.023 10.1943 164.904 10.0123 164.727 9.863C164.554 9.71367 164.307 9.597 163.985 9.513C163.667 9.42433 163.25 9.38 162.732 9.38V8.295C163.156 8.29033 163.513 8.24833 163.803 8.169C164.097 8.085 164.33 7.973 164.503 7.833C164.68 7.68833 164.806 7.51567 164.881 7.315C164.96 7.11433 165 6.895 165 6.657C165 6.40033 164.96 6.174 164.881 5.978C164.801 5.782 164.689 5.61867 164.545 5.488C164.405 5.35267 164.237 5.25233 164.041 5.187C163.845 5.12167 163.628 5.089 163.39 5.089C163.161 5.089 162.949 5.12167 162.753 5.187C162.561 5.25233 162.389 5.34333 162.235 5.46C162.085 5.57667 161.959 5.71667 161.857 5.88C161.754 6.03867 161.679 6.21367 161.633 6.405C161.567 6.59633 161.479 6.72467 161.367 6.79C161.259 6.85533 161.101 6.86933 160.891 6.832L160.1 6.692C160.17 6.216 160.3 5.79833 160.492 5.439C160.688 5.07967 160.933 4.781 161.227 4.543C161.521 4.30033 161.857 4.11833 162.235 3.997C162.617 3.871 163.03 3.808 163.474 3.808ZM171.826 3.808C172.274 3.808 172.685 3.87567 173.058 4.011C173.436 4.14167 173.76 4.33067 174.031 4.578C174.306 4.82067 174.521 5.117 174.675 5.467C174.829 5.817 174.906 6.21133 174.906 6.65C174.906 7.02333 174.85 7.36867 174.738 7.686C174.631 8.00333 174.484 8.30667 174.297 8.596C174.11 8.88533 173.891 9.16767 173.639 9.443C173.392 9.71367 173.13 9.989 172.855 10.269L170.419 12.761C170.62 12.7097 170.82 12.6677 171.021 12.635C171.226 12.5977 171.42 12.579 171.602 12.579H174.563C174.726 12.579 174.855 12.628 174.948 12.726C175.041 12.8193 175.088 12.9407 175.088 13.09V14H168.27V13.489C168.27 13.3863 168.291 13.279 168.333 13.167C168.375 13.055 168.443 12.9523 168.536 12.859L171.672 9.716C171.938 9.45 172.174 9.19567 172.379 8.953C172.589 8.71033 172.766 8.46767 172.911 8.225C173.06 7.98233 173.172 7.73733 173.247 7.49C173.326 7.238 173.366 6.97433 173.366 6.699C173.366 6.433 173.324 6.19967 173.24 5.999C173.161 5.79367 173.049 5.62567 172.904 5.495C172.764 5.35967 172.594 5.25933 172.393 5.194C172.197 5.124 171.98 5.089 171.742 5.089C171.513 5.089 171.301 5.12167 171.105 5.187C170.914 5.25233 170.741 5.34333 170.587 5.46C170.438 5.57667 170.312 5.71667 170.209 5.88C170.111 6.03867 170.039 6.21367 169.992 6.405C169.922 6.59633 169.831 6.72467 169.719 6.79C169.612 6.85533 169.453 6.86933 169.243 6.832L168.452 6.692C168.522 6.216 168.653 5.79833 168.844 5.439C169.04 5.07967 169.285 4.781 169.579 4.543C169.873 4.30033 170.209 4.11833 170.587 3.997C170.97 3.871 171.383 3.808 171.826 3.808Z" fill="white"/>
<path d="M36.151 3.808C36.599 3.808 37.0097 3.87567 37.383 4.011C37.761 4.14167 38.0853 4.33067 38.356 4.578C38.6313 4.82067 38.846 5.117 39 5.467C39.154 5.817 39.231 6.21133 39.231 6.65C39.231 7.02333 39.175 7.36867 39.063 7.686C38.9557 8.00333 38.8087 8.30667 38.622 8.596C38.4353 8.88533 38.216 9.16767 37.964 9.443C37.7167 9.71367 37.4553 9.989 37.18 10.269L34.744 12.761C34.9447 12.7097 35.1453 12.6677 35.346 12.635C35.5513 12.5977 35.745 12.579 35.927 12.579H38.888C39.0513 12.579 39.1797 12.628 39.273 12.726C39.3663 12.8193 39.413 12.9407 39.413 13.09V14H32.595V13.489C32.595 13.3863 32.616 13.279 32.658 13.167C32.7 13.055 32.7677 12.9523 32.861 12.859L35.997 9.716C36.263 9.45 36.4987 9.19567 36.704 8.953C36.914 8.71033 37.0913 8.46767 37.236 8.225C37.3853 7.98233 37.4973 7.73733 37.572 7.49C37.6513 7.238 37.691 6.97433 37.691 6.699C37.691 6.433 37.649 6.19967 37.565 5.999C37.4857 5.79367 37.3737 5.62567 37.229 5.495C37.089 5.35967 36.9187 5.25933 36.718 5.194C36.522 5.124 36.305 5.089 36.067 5.089C35.8383 5.089 35.626 5.12167 35.43 5.187C35.2387 5.25233 35.066 5.34333 34.912 5.46C34.7627 5.57667 34.6367 5.71667 34.534 5.88C34.436 6.03867 34.3637 6.21367 34.317 6.405C34.247 6.59633 34.156 6.72467 34.044 6.79C33.9367 6.85533 33.778 6.86933 33.568 6.832L32.777 6.692C32.847 6.216 32.9777 5.79833 33.169 5.439C33.365 5.07967 33.61 4.781 33.904 4.543C34.198 4.30033 34.534 4.11833 34.912 3.997C35.2947 3.871 35.7077 3.808 36.151 3.808ZM47.3381 4.571C47.3381 4.78567 47.2704 4.96067 47.1351 5.096C46.9998 5.23133 46.7734 5.299 46.4561 5.299H43.5021L43.0961 7.644C43.5768 7.546 44.0224 7.497 44.4331 7.497C44.9604 7.497 45.4248 7.57633 45.8261 7.735C46.2321 7.889 46.5704 8.10367 46.8411 8.379C47.1164 8.65433 47.3218 8.97867 47.4571 9.352C47.5971 9.72067 47.6671 10.122 47.6671 10.556C47.6671 11.0927 47.5738 11.5803 47.3871 12.019C47.2004 12.4577 46.9414 12.8333 46.6101 13.146C46.2788 13.454 45.8868 13.692 45.4341 13.86C44.9861 14.028 44.5008 14.112 43.9781 14.112C43.6701 14.112 43.3761 14.0817 43.0961 14.021C42.8208 13.9603 42.5618 13.8787 42.3191 13.776C42.0764 13.6687 41.8524 13.5473 41.6471 13.412C41.4418 13.272 41.2574 13.1273 41.0941 12.978L41.5561 12.334C41.6541 12.194 41.7848 12.124 41.9481 12.124C42.0508 12.124 42.1628 12.1613 42.2841 12.236C42.4054 12.3107 42.5454 12.3923 42.7041 12.481C42.8674 12.565 43.0588 12.6443 43.2781 12.719C43.4974 12.7937 43.7588 12.831 44.0621 12.831C44.3934 12.831 44.6898 12.7773 44.9511 12.67C45.2124 12.5627 45.4318 12.4133 45.6091 12.222C45.7911 12.026 45.9288 11.7927 46.0221 11.522C46.1154 11.2513 46.1621 10.955 46.1621 10.633C46.1621 10.339 46.1178 10.0753 46.0291 9.842C45.9451 9.60867 45.8168 9.41033 45.6441 9.247C45.4761 9.08367 45.2638 8.96 45.0071 8.876C44.7504 8.78733 44.4541 8.743 44.1181 8.743C43.8708 8.743 43.6164 8.764 43.3551 8.806C43.0984 8.848 42.8371 8.91333 42.5711 9.002L41.6331 8.736L42.4591 3.92H47.3381V4.571ZM49.6352 9.149H53.1842V10.423H49.6352V9.149ZM62.0262 8.96C62.0262 9.842 61.9305 10.605 61.7392 11.249C61.5525 11.893 61.2935 12.4273 60.9622 12.852C60.6308 13.2767 60.2412 13.5917 59.7932 13.797C59.3452 14.0023 58.8622 14.105 58.3442 14.105C57.8262 14.105 57.3432 14.0023 56.8952 13.797C56.4472 13.5917 56.0575 13.2767 55.7262 12.852C55.3995 12.4273 55.1428 11.893 54.9562 11.249C54.7695 10.605 54.6762 9.842 54.6762 8.96C54.6762 8.078 54.7695 7.315 54.9562 6.671C55.1428 6.02233 55.3995 5.488 55.7262 5.068C56.0575 4.64333 56.4472 4.32833 56.8952 4.123C57.3432 3.913 57.8262 3.808 58.3442 3.808C58.8622 3.808 59.3452 3.913 59.7932 4.123C60.2412 4.32833 60.6308 4.64333 60.9622 5.068C61.2935 5.488 61.5525 6.02233 61.7392 6.671C61.9305 7.315 62.0262 8.078 62.0262 8.96ZM60.4722 8.96C60.4722 8.21333 60.4115 7.59267 60.2902 7.098C60.1735 6.59867 60.0172 6.19967 59.8212 5.901C59.6252 5.60233 59.3988 5.39 59.1422 5.264C58.8855 5.138 58.6195 5.075 58.3442 5.075C58.0642 5.075 57.7958 5.138 57.5392 5.264C57.2872 5.39 57.0632 5.60233 56.8672 5.901C56.6712 6.19967 56.5148 6.59867 56.3982 7.098C56.2815 7.59267 56.2232 8.21333 56.2232 8.96C56.2232 9.70667 56.2815 10.3297 56.3982 10.829C56.5148 11.3237 56.6712 11.7203 56.8672 12.019C57.0632 12.3177 57.2872 12.53 57.5392 12.656C57.7958 12.782 58.0642 12.845 58.3442 12.845C58.6195 12.845 58.8855 12.782 59.1422 12.656C59.3988 12.53 59.6252 12.3177 59.8212 12.019C60.0172 11.7203 60.1735 11.3237 60.2902 10.829C60.4115 10.3297 60.4722 9.70667 60.4722 8.96ZM66.8923 3.808C67.3403 3.808 67.7463 3.87333 68.1103 4.004C68.4789 4.13 68.7939 4.30733 69.0553 4.536C69.3213 4.76467 69.5243 5.03767 69.6643 5.355C69.8089 5.67233 69.8813 6.02 69.8813 6.398C69.8813 7.03733 69.7319 7.539 69.4333 7.903C69.1393 8.26233 68.7333 8.52367 68.2153 8.687C69.4706 9.05567 70.0983 9.84433 70.0983 11.053C70.0983 11.5383 70.0073 11.97 69.8253 12.348C69.6433 12.726 69.3959 13.0457 69.0833 13.307C68.7753 13.5683 68.4136 13.769 67.9983 13.909C67.5876 14.0443 67.1513 14.112 66.6893 14.112C66.1713 14.112 65.7233 14.0513 65.3453 13.93C64.9673 13.804 64.6406 13.6267 64.3653 13.398C64.0946 13.1647 63.8683 12.8847 63.6863 12.558C63.5043 12.2313 63.3503 11.865 63.2243 11.459L63.8753 11.186C64.0479 11.1113 64.2113 11.0903 64.3653 11.123C64.5239 11.1557 64.6383 11.242 64.7083 11.382C64.7829 11.5313 64.8669 11.6923 64.9603 11.865C65.0536 12.033 65.1726 12.1893 65.3173 12.334C65.4666 12.474 65.6486 12.593 65.8633 12.691C66.0826 12.7843 66.3509 12.831 66.6683 12.831C66.9903 12.831 67.2703 12.7797 67.5083 12.677C67.7509 12.5697 67.9516 12.4343 68.1103 12.271C68.2736 12.103 68.3949 11.9163 68.4743 11.711C68.5536 11.5057 68.5933 11.3027 68.5933 11.102C68.5933 10.85 68.5629 10.619 68.5023 10.409C68.4416 10.1943 68.3226 10.0123 68.1453 9.863C67.9726 9.71367 67.7253 9.597 67.4033 9.513C67.0859 9.42433 66.6683 9.38 66.1503 9.38V8.295C66.5749 8.29033 66.9319 8.24833 67.2213 8.169C67.5153 8.085 67.7486 7.973 67.9213 7.833C68.0986 7.68833 68.2246 7.51567 68.2993 7.315C68.3786 7.11433 68.4183 6.895 68.4183 6.657C68.4183 6.40033 68.3786 6.174 68.2993 5.978C68.2199 5.782 68.1079 5.61867 67.9633 5.488C67.8233 5.35267 67.6553 5.25233 67.4593 5.187C67.2633 5.12167 67.0463 5.089 66.8083 5.089C66.5796 5.089 66.3673 5.12167 66.1713 5.187C65.9799 5.25233 65.8073 5.34333 65.6533 5.46C65.5039 5.57667 65.3779 5.71667 65.2753 5.88C65.1726 6.03867 65.0979 6.21367 65.0513 6.405C64.9859 6.59633 64.8973 6.72467 64.7853 6.79C64.6779 6.85533 64.5193 6.86933 64.3093 6.832L63.5183 6.692C63.5883 6.216 63.7189 5.79833 63.9103 5.439C64.1063 5.07967 64.3513 4.781 64.6453 4.543C64.9393 4.30033 65.2753 4.11833 65.6533 3.997C66.0359 3.871 66.4489 3.808 66.8923 3.808ZM71.9264 9.149H75.4754V10.423H71.9264V9.149ZM80.7333 3.808C81.1813 3.808 81.592 3.87567 81.9653 4.011C82.3433 4.14167 82.6677 4.33067 82.9383 4.578C83.2137 4.82067 83.4283 5.117 83.5823 5.467C83.7363 5.817 83.8133 6.21133 83.8133 6.65C83.8133 7.02333 83.7573 7.36867 83.6453 7.686C83.538 8.00333 83.391 8.30667 83.2043 8.596C83.0177 8.88533 82.7983 9.16767 82.5463 9.443C82.299 9.71367 82.0377 9.989 81.7623 10.269L79.3263 12.761C79.527 12.7097 79.7277 12.6677 79.9283 12.635C80.1337 12.5977 80.3273 12.579 80.5093 12.579H83.4703C83.6337 12.579 83.762 12.628 83.8553 12.726C83.9487 12.8193 83.9953 12.9407 83.9953 13.09V14H77.1773V13.489C77.1773 13.3863 77.1983 13.279 77.2403 13.167C77.2823 13.055 77.35 12.9523 77.4433 12.859L80.5793 9.716C80.8453 9.45 81.081 9.19567 81.2863 8.953C81.4963 8.71033 81.6737 8.46767 81.8183 8.225C81.9677 7.98233 82.0797 7.73733 82.1543 7.49C82.2337 7.238 82.2733 6.97433 82.2733 6.699C82.2733 6.433 82.2313 6.19967 82.1473 5.999C82.068 5.79367 81.956 5.62567 81.8113 5.495C81.6713 5.35967 81.501 5.25933 81.3003 5.194C81.1043 5.124 80.8873 5.089 80.6493 5.089C80.4207 5.089 80.2083 5.12167 80.0123 5.187C79.821 5.25233 79.6483 5.34333 79.4943 5.46C79.345 5.57667 79.219 5.71667 79.1163 5.88C79.0183 6.03867 78.946 6.21367 78.8993 6.405C78.8293 6.59633 78.7383 6.72467 78.6263 6.79C78.519 6.85533 78.3603 6.86933 78.1503 6.832L77.3593 6.692C77.4293 6.216 77.56 5.79833 77.7513 5.439C77.9473 5.07967 78.1923 4.781 78.4863 4.543C78.7803 4.30033 79.1163 4.11833 79.4943 3.997C79.877 3.871 80.29 3.808 80.7333 3.808ZM92.7184 8.96C92.7184 9.842 92.6228 10.605 92.4314 11.249C92.2448 11.893 91.9858 12.4273 91.6544 12.852C91.3231 13.2767 90.9334 13.5917 90.4854 13.797C90.0374 14.0023 89.5544 14.105 89.0364 14.105C88.5184 14.105 88.0354 14.0023 87.5874 13.797C87.1394 13.5917 86.7498 13.2767 86.4184 12.852C86.0918 12.4273 85.8351 11.893 85.6484 11.249C85.4618 10.605 85.3684 9.842 85.3684 8.96C85.3684 8.078 85.4618 7.315 85.6484 6.671C85.8351 6.02233 86.0918 5.488 86.4184 5.068C86.7498 4.64333 87.1394 4.32833 87.5874 4.123C88.0354 3.913 88.5184 3.808 89.0364 3.808C89.5544 3.808 90.0374 3.913 90.4854 4.123C90.9334 4.32833 91.3231 4.64333 91.6544 5.068C91.9858 5.488 92.2448 6.02233 92.4314 6.671C92.6228 7.315 92.7184 8.078 92.7184 8.96ZM91.1644 8.96C91.1644 8.21333 91.1038 7.59267 90.9824 7.098C90.8658 6.59867 90.7094 6.19967 90.5134 5.901C90.3174 5.60233 90.0911 5.39 89.8344 5.264C89.5778 5.138 89.3118 5.075 89.0364 5.075C88.7564 5.075 88.4881 5.138 88.2314 5.264C87.9794 5.39 87.7554 5.60233 87.5594 5.901C87.3634 6.19967 87.2071 6.59867 87.0904 7.098C86.9738 7.59267 86.9154 8.21333 86.9154 8.96C86.9154 9.70667 86.9738 10.3297 87.0904 10.829C87.2071 11.3237 87.3634 11.7203 87.5594 12.019C87.7554 12.3177 87.9794 12.53 88.2314 12.656C88.4881 12.782 88.7564 12.845 89.0364 12.845C89.3118 12.845 89.5778 12.782 89.8344 12.656C90.0911 12.53 90.3174 12.3177 90.5134 12.019C90.7094 11.7203 90.8658 11.3237 90.9824 10.829C91.1038 10.3297 91.1644 9.70667 91.1644 8.96ZM97.5355 3.808C97.9835 3.808 98.3942 3.87567 98.7675 4.011C99.1455 4.14167 99.4699 4.33067 99.7405 4.578C100.016 4.82067 100.231 5.117 100.385 5.467C100.539 5.817 100.616 6.21133 100.616 6.65C100.616 7.02333 100.56 7.36867 100.448 7.686C100.34 8.00333 100.193 8.30667 100.007 8.596C99.8199 8.88533 99.6005 9.16767 99.3485 9.443C99.1012 9.71367 98.8399 9.989 98.5645 10.269L96.1285 12.761C96.3292 12.7097 96.5299 12.6677 96.7305 12.635C96.9359 12.5977 97.1295 12.579 97.3115 12.579H100.273C100.436 12.579 100.564 12.628 100.658 12.726C100.751 12.8193 100.798 12.9407 100.798 13.09V14H93.9795V13.489C93.9795 13.3863 94.0005 13.279 94.0425 13.167C94.0845 13.055 94.1522 12.9523 94.2455 12.859L97.3815 9.716C97.6475 9.45 97.8832 9.19567 98.0885 8.953C98.2985 8.71033 98.4759 8.46767 98.6205 8.225C98.7699 7.98233 98.8819 7.73733 98.9565 7.49C99.0359 7.238 99.0755 6.97433 99.0755 6.699C99.0755 6.433 99.0335 6.19967 98.9495 5.999C98.8702 5.79367 98.7582 5.62567 98.6135 5.495C98.4735 5.35967 98.3032 5.25933 98.1025 5.194C97.9065 5.124 97.6895 5.089 97.4515 5.089C97.2229 5.089 97.0105 5.12167 96.8145 5.187C96.6232 5.25233 96.4505 5.34333 96.2965 5.46C96.1472 5.57667 96.0212 5.71667 95.9185 5.88C95.8205 6.03867 95.7482 6.21367 95.7015 6.405C95.6315 6.59633 95.5405 6.72467 95.4285 6.79C95.3212 6.85533 95.1625 6.86933 94.9525 6.832L94.1615 6.692C94.2315 6.216 94.3622 5.79833 94.5535 5.439C94.7495 5.07967 94.9945 4.781 95.2885 4.543C95.5825 4.30033 95.9185 4.11833 96.2965 3.997C96.6792 3.871 97.0922 3.808 97.5355 3.808ZM103.48 12.859H105.58V6.545C105.58 6.32567 105.587 6.097 105.601 5.859L103.984 7.224C103.914 7.28 103.841 7.31733 103.767 7.336C103.697 7.35 103.629 7.35 103.564 7.336C103.503 7.322 103.447 7.301 103.396 7.273C103.349 7.24033 103.312 7.20533 103.284 7.168L102.815 6.51L105.853 3.899H107.078V12.859H108.975V14H103.48V12.859Z" fill="white"/>
<path d="M12.0625 7.1875C12.4077 7.1875 12.6875 6.90768 12.6875 6.5625C12.6875 6.21732 12.4077 5.9375 12.0625 5.9375C11.7173 5.9375 11.4375 6.21732 11.4375 6.5625C11.4375 6.90768 11.7173 7.1875 12.0625 7.1875Z" fill="white"/>
<path d="M13.5 1.25H12.6875V0.625C12.6875 0.279813 12.4077 0 12.0625 0C11.7173 0 11.4375 0.279813 11.4375 0.625V1.25H8.59375V0.625C8.59375 0.279813 8.31394 0 7.96875 0C7.62356 0 7.34375 0.279813 7.34375 0.625V1.25H4.53125V0.625C4.53125 0.279813 4.25144 0 3.90625 0C3.56106 0 3.28125 0.279813 3.28125 0.625V1.25H2.5C1.1215 1.25 0 2.3715 0 3.75V13.5C0 14.8785 1.1215 16 2.5 16H7.28125C7.62644 16 7.90625 15.7202 7.90625 15.375C7.90625 15.0298 7.62644 14.75 7.28125 14.75H2.5C1.81075 14.75 1.25 14.1892 1.25 13.5V3.75C1.25 3.06075 1.81075 2.5 2.5 2.5H3.28125V3.125C3.28125 3.47019 3.56106 3.75 3.90625 3.75C4.25144 3.75 4.53125 3.47019 4.53125 3.125V2.5H7.34375V3.125C7.34375 3.47019 7.62356 3.75 7.96875 3.75C8.31394 3.75 8.59375 3.47019 8.59375 3.125V2.5H11.4375V3.125C11.4375 3.47019 11.7173 3.75 12.0625 3.75C12.4077 3.75 12.6875 3.47019 12.6875 3.125V2.5H13.5C14.1892 2.5 14.75 3.06075 14.75 3.75V7.3125C14.75 7.65769 15.0298 7.9375 15.375 7.9375C15.7202 7.9375 16 7.65769 16 7.3125V3.75C16 2.3715 14.8785 1.25 13.5 1.25Z" fill="white"/>
<path d="M12.2188 8.4375C10.1337 8.4375 8.4375 10.1337 8.4375 12.2188C8.4375 14.3038 10.1337 16 12.2188 16C14.3038 16 16 14.3038 16 12.2188C16 10.1337 14.3038 8.4375 12.2188 8.4375ZM12.2188 14.75C10.823 14.75 9.6875 13.6145 9.6875 12.2188C9.6875 10.823 10.823 9.6875 12.2188 9.6875C13.6145 9.6875 14.75 10.823 14.75 12.2188C14.75 13.6145 13.6145 14.75 12.2188 14.75Z" fill="white"/>
<path d="M13.125 11.5938H12.8438V10.9375C12.8438 10.5923 12.5639 10.3125 12.2188 10.3125C11.8736 10.3125 11.5938 10.5923 11.5938 10.9375V12.2188C11.5938 12.5639 11.8736 12.8438 12.2188 12.8438H13.125C13.4702 12.8438 13.75 12.5639 13.75 12.2188C13.75 11.8736 13.4702 11.5938 13.125 11.5938Z" fill="white"/>
<path d="M9.34375 7.1875C9.68893 7.1875 9.96875 6.90768 9.96875 6.5625C9.96875 6.21732 9.68893 5.9375 9.34375 5.9375C8.99857 5.9375 8.71875 6.21732 8.71875 6.5625C8.71875 6.90768 8.99857 7.1875 9.34375 7.1875Z" fill="white"/>
<path d="M6.625 9.90625C6.97018 9.90625 7.25 9.62643 7.25 9.28125C7.25 8.93607 6.97018 8.65625 6.625 8.65625C6.27982 8.65625 6 8.93607 6 9.28125C6 9.62643 6.27982 9.90625 6.625 9.90625Z" fill="white"/>
<path d="M3.90625 7.1875C4.25143 7.1875 4.53125 6.90768 4.53125 6.5625C4.53125 6.21732 4.25143 5.9375 3.90625 5.9375C3.56107 5.9375 3.28125 6.21732 3.28125 6.5625C3.28125 6.90768 3.56107 7.1875 3.90625 7.1875Z" fill="white"/>
<path d="M3.90625 9.90625C4.25143 9.90625 4.53125 9.62643 4.53125 9.28125C4.53125 8.93607 4.25143 8.65625 3.90625 8.65625C3.56107 8.65625 3.28125 8.93607 3.28125 9.28125C3.28125 9.62643 3.56107 9.90625 3.90625 9.90625Z" fill="white"/>
<path d="M3.90625 12.625C4.25143 12.625 4.53125 12.3452 4.53125 12C4.53125 11.6548 4.25143 11.375 3.90625 11.375C3.56107 11.375 3.28125 11.6548 3.28125 12C3.28125 12.3452 3.56107 12.625 3.90625 12.625Z" fill="white"/>
<path d="M6.625 12.625C6.97018 12.625 7.25 12.3452 7.25 12C7.25 11.6548 6.97018 11.375 6.625 11.375C6.27982 11.375 6 11.6548 6 12C6 12.3452 6.27982 12.625 6.625 12.625Z" fill="white"/>
<path d="M6.625 7.1875C6.97018 7.1875 7.25 6.90768 7.25 6.5625C7.25 6.21732 6.97018 5.9375 6.625 5.9375C6.27982 5.9375 6 6.21732 6 6.5625C6 6.90768 6.27982 7.1875 6.625 7.1875Z" fill="white"/>
</svg>
