<svg xmlns="http://www.w3.org/2000/svg" width="29.18" height="29.18" viewBox="0 0 29.18 29.18">
  <g id="call" transform="translate(0)">
    <g id="Group_1952" data-name="Group 1952" transform="translate(0 0)">
      <g id="Group_1951" data-name="Group 1951" transform="translate(0 0)">
        <path id="Path_1523" data-name="Path 1523" d="M28.613,23.2l-3.235-2.157L22.5,19.129a1.274,1.274,0,0,0-1.711.278l-1.779,2.288a1.267,1.267,0,0,1-1.618.336,20.718,20.718,0,0,1-5.786-4.458A20.867,20.867,0,0,1,7.15,11.786a1.267,1.267,0,0,1,.336-1.618L9.774,8.389a1.274,1.274,0,0,0,.278-1.711L8.193,3.891,5.978.567A1.274,1.274,0,0,0,4.263.181L1.707,1.714A3.122,3.122,0,0,0,.29,3.549c-.7,2.548-.84,8.168,8.167,17.175s14.627,8.866,17.174,8.167a3.122,3.122,0,0,0,1.835-1.418L29,24.918A1.274,1.274,0,0,0,28.613,23.2Z" transform="translate(0 0)" fill="#535aa2"/>
        <path id="Path_1524" data-name="Path 1524" d="M282.985,62.8a8.562,8.562,0,0,1,8.553,8.553.5.5,0,1,0,1.006,0,9.569,9.569,0,0,0-9.559-9.559.5.5,0,1,0,0,1.006Z" transform="translate(-266.383 -58.27)" fill="#535aa2"/>
        <path id="Path_1525" data-name="Path 1525" d="M282.984,115.762a5.541,5.541,0,0,1,5.534,5.534.5.5,0,0,0,1.006,0,6.548,6.548,0,0,0-6.54-6.54.5.5,0,1,0,0,1.006Z" transform="translate(-266.382 -108.216)" fill="#535aa2"/>
        <path id="Path_1526" data-name="Path 1526" d="M282.985,168.729a2.519,2.519,0,0,1,2.516,2.516.5.5,0,1,0,1.006,0,3.526,3.526,0,0,0-3.522-3.522.5.5,0,1,0,0,1.006Z" transform="translate(-266.383 -158.164)" fill="#535aa2"/>
      </g>
    </g>
  </g>
</svg>
