<svg xmlns="http://www.w3.org/2000/svg" width="176" height="175.999" viewBox="0 0 176 175.999">
  <g id="chat" transform="translate(-232.139 -202.114)">
    <path id="Path_1543" data-name="Path 1543" d="M408.139,290.115a88,88,0,1,1-88-88A88,88,0,0,1,408.139,290.115Z" transform="translate(0 0)" fill="#f5f5f5"/>
    <g id="Group_1969" data-name="Group 1969" transform="translate(274.627 229.333)">
      <g id="Group_1965" data-name="Group 1965">
        <g id="Group_1964" data-name="Group 1964">
          <path id="Path_1544" data-name="Path 1544" d="M272.2,272.409c0,16.943,8.548,30.6,23.351,39.239l17.806-20.234a13.952,13.952,0,0,1,3.464,1.059v-64.7A44.625,44.625,0,0,0,272.2,272.409Z" transform="translate(-272.195 -227.775)" fill="#eb7e2d"/>
        </g>
      </g>
      <g id="Group_1966" data-name="Group 1966" transform="translate(44.621)">
        <path id="Path_1545" data-name="Path 1545" d="M358.893,272.409c0,16.943-8.555,30.6-23.359,39.239l-17.8-20.234a14.045,14.045,0,0,0-3.474,1.059v-64.7A44.63,44.63,0,0,1,358.893,272.409Z" transform="translate(-314.262 -227.775)" fill="#eb7e2d"/>
      </g>
      <path id="Path_1546" data-name="Path 1546" d="M355.13,273.6c0,18.283-17.3,33.1-38.648,33.1s-38.654-14.816-38.654-33.1,17.3-33.091,38.654-33.091S355.13,255.324,355.13,273.6Z" transform="translate(-271.853 -227.002)" fill="#ffe5ba"/>
      <g id="Group_1967" data-name="Group 1967" transform="translate(32.508 56.189)">
        <path id="Path_1547" data-name="Path 1547" d="M314.955,294.876c8.626,0,12.121-7.435,12.121-14.129H302.842C302.842,287.441,306.7,294.876,314.955,294.876Z" transform="translate(-302.842 -280.747)" fill="#fff"/>
      </g>
      <path id="Path_1548" data-name="Path 1548" d="M293.586,246.7s-4.123,21.579-14.059,28.648S272.916,253.353,293.586,246.7Z" transform="translate(-272.077 -226.626)" fill="#eb7e2d"/>
      <path id="Path_1549" data-name="Path 1549" d="M306.981,265.8a3.916,3.916,0,1,1-3.915-3.918A3.914,3.914,0,0,1,306.981,265.8Z" transform="translate(-270.558 -225.704)" fill="#414042"/>
      <path id="Path_1550" data-name="Path 1550" d="M304.967,264.787a1.626,1.626,0,1,1-1.624-1.622A1.625,1.625,0,0,1,304.967,264.787Z" transform="translate(-270.402 -225.626)" fill="#f1f2f2"/>
      <path id="Path_1551" data-name="Path 1551" d="M321.992,265.8a3.917,3.917,0,1,0,3.917-3.918A3.92,3.92,0,0,0,321.992,265.8Z" transform="translate(-269.171 -225.704)" fill="#414042"/>
      <path id="Path_1552" data-name="Path 1552" d="M323.748,264.787a1.623,1.623,0,1,0,1.626-1.622A1.625,1.625,0,0,0,323.748,264.787Z" transform="translate(-269.065 -225.626)" fill="#f1f2f2"/>
      <path id="Path_1553" data-name="Path 1553" d="M297.534,278.771c0,2.661-2.691,4.824-6.006,4.824s-6.016-2.163-6.016-4.824,2.7-4.818,6.016-4.818S297.534,276.107,297.534,278.771Z" transform="translate(-271.386 -224.971)" fill="#fdb5ac"/>
      <path id="Path_1554" data-name="Path 1554" d="M331.682,278.771c0,2.661,2.689,4.824,6.014,4.824s6.006-2.163,6.006-4.824-2.691-4.818-6.006-4.818S331.682,276.107,331.682,278.771Z" transform="translate(-268.583 -224.971)" fill="#fdb5ac"/>
      <path id="Path_1555" data-name="Path 1555" d="M285.333,278.8a5.294,5.294,0,1,1-5.292-5.292A5.294,5.294,0,0,1,285.333,278.8Z" transform="translate(-272.04 -224.998)" fill="#ffe5ba"/>
      <path id="Path_1556" data-name="Path 1556" d="M343.805,278.8a5.291,5.291,0,1,0,5.285-5.292A5.29,5.29,0,0,0,343.805,278.8Z" transform="translate(-267.847 -224.998)" fill="#ffe5ba"/>
      <g id="Group_1968" data-name="Group 1968" transform="translate(22.883 29.766)">
        <path id="Path_1557" data-name="Path 1557" d="M302.2,255.837c-3.678,0-6.838,1.274-8.43,3.125a19.741,19.741,0,0,1,8.43-2.172,18.582,18.582,0,0,1,8.436,2.172C309.045,257.111,305.883,255.837,302.2,255.837Z" transform="translate(-293.768 -255.837)" fill="#754c29"/>
      </g>
      <rect id="Rectangle_380" data-name="Rectangle 380" width="11.743" height="19.982" transform="translate(39.748 73.603)" fill="#ffe5ba"/>
      <path id="Path_1558" data-name="Path 1558" d="M292.029,272.792a.8.8,0,1,1-.8-.805A.806.806,0,0,1,292.029,272.792Z" transform="translate(-271.088 -225.09)" fill="#ffe5ba"/>
      <path id="Path_1559" data-name="Path 1559" d="M348.237,260.678s4.252-5,4.421-8.823a20.441,20.441,0,0,1-6.2,5.543Z" transform="translate(-267.685 -226.313)" fill="#ad6a42"/>
      <path id="Path_1560" data-name="Path 1560" d="M292.943,247.113s-3.593-2.782-8.216-7.22c0,0,3.656,6.087,5.439,17.388A82.676,82.676,0,0,0,292.943,247.113Z" transform="translate(-271.434 -227.039)" fill="#ad6a42"/>
      <path id="Path_1561" data-name="Path 1561" d="M351.9,247.735s-8.687-1.812-13.717-5.4c-8.479-6.062-18.152-10.027-34.7-5.1C303.486,237.227,338.394,256.213,351.9,247.735Z" transform="translate(-270.295 -227.336)" fill="#ad6a42"/>
      <path id="Path_1562" data-name="Path 1562" d="M289.154,244.406s30.915,29.456,63.263,12.346c3.3-1.746,8-9.068,7-13.183,0,0-7,10.895-24.883-1.716C324.295,234.63,293.594,233.155,289.154,244.406Z" transform="translate(-271.165 -227.264)" fill="#eb7e2d"/>
    </g>
    <g id="Group_1970" data-name="Group 1970" transform="translate(320.14 320.23)">
      <path id="Path_1563" data-name="Path 1563" d="M366.35,324.127c-1.021-.985-29.509-10.659-29.509-10.659-4.759,4.821-21.738,2.709-21.738,2.709v55.175h0a88.666,88.666,0,0,0,58.488-21.936C372.5,338.407,370.4,328.022,366.35,324.127Z" transform="translate(-315.102 -313.468)" fill="#535aa2"/>
    </g>
    <path id="Path_1564" data-name="Path 1564" d="M321.08,307.467l15.76,6.365L325,327.574l-9.9-11.033A9.2,9.2,0,0,0,321.08,307.467Z" transform="translate(5.038 6.397)" fill="#fff"/>
    <g id="Group_1971" data-name="Group 1971" transform="translate(261.653 320.23)">
      <path id="Path_1565" data-name="Path 1565" d="M267.2,324.127c1.022-.985,29.509-10.659,29.509-10.659,4.757,4.821,21.737,2.709,21.737,2.709v55.175h0a88.657,88.657,0,0,1-58.487-21.936C261.055,338.407,263.149,328.022,267.2,324.127Z" transform="translate(-259.963 -313.468)" fill="#535aa2"/>
    </g>
    <path id="Path_1566" data-name="Path 1566" d="M310.582,307.467l-15.973,6.365,11.838,13.742,9.9-11.033S310.582,314.7,310.582,307.467Z" transform="translate(3.793 6.397)" fill="#fff"/>
    <g id="Group_1975" data-name="Group 1975" transform="translate(268.304 220.952)">
      <g id="Group_1972" data-name="Group 1972" transform="translate(84.488 47.931)">
        <path id="Path_1567" data-name="Path 1567" d="M362.956,279.559a14.519,14.519,0,0,0-11.624-14.224v28.446A14.515,14.515,0,0,0,362.956,279.559Z" transform="translate(-345.554 -265.044)" fill="#379bc2"/>
        <path id="Path_1568" data-name="Path 1568" d="M348.777,265.061a14.672,14.672,0,0,0-2.892.291V293.8a14.4,14.4,0,0,0,5.778,0V265.352A14.6,14.6,0,0,0,348.777,265.061Z" transform="translate(-345.885 -265.061)" fill="#297492"/>
      </g>
      <g id="Group_1973" data-name="Group 1973" transform="translate(0 47.931)">
        <path id="Path_1569" data-name="Path 1569" d="M266.234,279.559a14.517,14.517,0,0,1,11.622-14.224v28.446A14.513,14.513,0,0,1,266.234,279.559Z" transform="translate(-266.234 -265.044)" fill="#379bc2"/>
        <path id="Path_1570" data-name="Path 1570" d="M280.079,265.061a14.67,14.67,0,0,1,2.89.291V293.8a14.405,14.405,0,0,1-5.779,0V265.352A14.616,14.616,0,0,1,280.079,265.061Z" transform="translate(-265.569 -265.061)" fill="#297492"/>
      </g>
      <path id="Path_1571" data-name="Path 1571" d="M321.473,306.723v-3.182c29.063,0,33.65-19.491,33.831-20.32l3.113.665C358.368,284.114,353.2,306.723,321.473,306.723Z" transform="translate(-262.88 -216.027)" fill="#379bc2"/>
      <path id="Path_1572" data-name="Path 1572" d="M327.046,304.129a4.385,4.385,0,0,1-4.382,4.386h-7.532a4.386,4.386,0,0,1-4.382-4.386h0a4.383,4.383,0,0,1,4.382-4.381h7.532a4.382,4.382,0,0,1,4.382,4.381Z" transform="translate(-263.531 -215.024)" fill="#297492"/>
      <g id="Group_1974" data-name="Group 1974" transform="translate(6.319)">
        <path id="Path_1573" data-name="Path 1573" d="M272.271,278.939l-.08-12.68c0-25.581,20.019-46.385,44.626-46.385s44.627,20.8,44.627,46.376a48.1,48.1,0,0,1-1.659,12.52l-3.072-.828a44.93,44.93,0,0,0,1.549-11.691c0-23.816-18.591-43.194-41.445-43.194s-41.443,19.377-41.443,43.194l.08,12.668Z" transform="translate(-272.191 -219.874)" fill="#379bc2"/>
      </g>
    </g>
  </g>
</svg>
