<svg xmlns="http://www.w3.org/2000/svg" width="22.567" height="32" viewBox="0 0 22.567 32">
  <g id="invoice" transform="translate(-73.723)">
    <path id="Path_1815" data-name="Path 1815" d="M94.361,0H75.653a1.932,1.932,0,0,0-1.93,1.93V30.07A1.932,1.932,0,0,0,75.653,32H90.941a.672.672,0,0,0,.475-.2l4.678-4.678a.672.672,0,0,0,.2-.475V1.93A1.932,1.932,0,0,0,94.361,0ZM91.613,29.706v-1.8a.587.587,0,0,1,.586-.586H94ZM75.653,1.343H94.361a.587.587,0,0,1,.586.586V4.006H75.066V1.93A.587.587,0,0,1,75.653,1.343ZM75.066,30.07V5.349h19.88v20.63H92.2a1.932,1.932,0,0,0-1.93,1.93v2.748H75.653A.587.587,0,0,1,75.066,30.07Z" fill="#4fb866"/>
    <path id="Path_1816" data-name="Path 1816" d="M128.124,141.7h8.8a.672.672,0,1,0,0-1.343h-8.8a.672.672,0,0,0,0,1.343Z" transform="translate(-50.292 -131.382)" fill="#4fb866"/>
    <path id="Path_1817" data-name="Path 1817" d="M307.624,141.7h2.271a.672.672,0,1,0,0-1.343h-2.271a.672.672,0,1,0,0,1.343Z" transform="translate(-218.308 -131.382)" fill="#4fb866"/>
    <path id="Path_1818" data-name="Path 1818" d="M128.124,225.079h8.8a.672.672,0,1,0,0-1.343h-8.8a.672.672,0,0,0,0,1.343Z" transform="translate(-50.292 -209.423)" fill="#4fb866"/>
    <path id="Path_1819" data-name="Path 1819" d="M307.624,225.079h2.271a.672.672,0,0,0,0-1.343h-2.271a.672.672,0,1,0,0,1.343Z" transform="translate(-218.308 -209.423)" fill="#4fb866"/>
    <path id="Path_1820" data-name="Path 1820" d="M137.592,307.783a.672.672,0,0,0-.672-.672h-8.8a.672.672,0,1,0,0,1.343h8.8A.672.672,0,0,0,137.592,307.783Z" transform="translate(-50.292 -287.464)" fill="#4fb866"/>
    <path id="Path_1821" data-name="Path 1821" d="M307.624,308.454h2.271a.672.672,0,0,0,0-1.343h-2.271a.672.672,0,1,0,0,1.343Z" transform="translate(-218.308 -287.464)" fill="#4fb866"/>
    <path id="Path_1822" data-name="Path 1822" d="M249.521,368.454a.672.672,0,1,0,0-1.343h-6.4a.672.672,0,0,0,0,1.343Z" transform="translate(-157.935 -343.625)" fill="#4fb866"/>
  </g>
</svg>
