<svg xmlns="http://www.w3.org/2000/svg" width="90" height="90" viewBox="0 0 90 90">
  <g id="credit-card" transform="translate(0 -0.243)">
    <g id="Group_2152" data-name="Group 2152" transform="translate(0 0.243)">
      <g id="Group_2151" data-name="Group 2151" transform="translate(0 0)">
        <path id="Path_1855" data-name="Path 1855" d="M89.372,32.561,79.317,6.392a9.587,9.587,0,0,0-12.4-5.5Q66.811.93,66.7.974L16.457,21.824a9.558,9.558,0,0,0-5.3,12.227l1.382,3.692H9.366A9.381,9.381,0,0,0,0,47.117v33.75a9.381,9.381,0,0,0,9.366,9.375H73.052a9.381,9.381,0,0,0,9.366-9.375V47.117a9.226,9.226,0,0,0-.135-1.518l1.74-.705A9.639,9.639,0,0,0,89.372,32.561ZM9.366,40.742H73.052a6.362,6.362,0,0,1,6.331,6H3.034A6.362,6.362,0,0,1,9.366,40.742Zm15.061-9.036,10.016-5.015L36.5,31.847,26.486,36.86ZM79.421,80.868a6.379,6.379,0,0,1-6.369,6.375H9.366A6.379,6.379,0,0,1,3,80.868V61.743H79.421Zm0-22.125H3v-9H79.421ZM82.9,42.122l-1.566.635a9.369,9.369,0,0,0-8.281-5.015H31.427l7.65-3.83a1.5,1.5,0,0,0,.722-1.9l-3.178-7.95a1.5,1.5,0,0,0-1.948-.836q-.058.023-.114.051L21.853,29.642a1.5,1.5,0,0,0-.721,1.9l2.479,6.2H15.734L13.96,33.005a6.569,6.569,0,0,1,3.644-8.4L67.851,3.755a6.582,6.582,0,0,1,8.6,3.564q.033.078.063.158L86.573,33.646A6.625,6.625,0,0,1,82.9,42.122Z" transform="translate(0 -0.243)" fill="#eb7e2d"/>
        <path id="Path_1856" data-name="Path 1856" d="M268.367,369.041a9.015,9.015,0,0,0,9.057,0,9.015,9.015,0,1,0,0-15.591,9.015,9.015,0,1,0-9.057,15.591Zm11.57-13.439a6.011,6.011,0,1,1,0,11.287A8.979,8.979,0,0,0,279.937,355.6Zm-2.512,1.71a5.9,5.9,0,0,1,0,7.867A5.9,5.9,0,0,1,277.425,357.312Zm-4.508-2.077a5.947,5.947,0,0,1,2,.367,8.979,8.979,0,0,0,0,11.287,6,6,0,1,1-2-11.654Z" transform="translate(-214.508 -286.271)" fill="#eb7e2d"/>
        <rect id="Rectangle_447" data-name="Rectangle 447" width="3.005" height="15.686" transform="translate(64.359 33.709) rotate(-113.966)" fill="#eb7e2d"/>
        <rect id="Rectangle_448" data-name="Rectangle 448" width="22.802" height="3.004" transform="matrix(0.908, -0.419, 0.419, 0.908, 53.62, 27.797)" fill="#eb7e2d"/>
      </g>
    </g>
  </g>
</svg>
