<svg xmlns="http://www.w3.org/2000/svg" width="42.238" height="29.283" viewBox="0 0 42.238 29.283">
  <g id="delivery" transform="translate(0 -78.521)">
    <g id="Group_2116" data-name="Group 2116" transform="translate(26.576 97.155)">
      <g id="Group_2115" data-name="Group 2115">
        <path id="Path_1823" data-name="Path 1823" d="M327.475,304.4a5.324,5.324,0,1,0,5.324,5.324A5.33,5.33,0,0,0,327.475,304.4Zm0,7.986a2.662,2.662,0,1,1,2.662-2.662A2.665,2.665,0,0,1,327.475,312.389Z" transform="translate(-322.151 -304.403)" fill="#4fb866"/>
      </g>
    </g>
    <g id="Group_2118" data-name="Group 2118" transform="translate(8.385 97.155)">
      <g id="Group_2117" data-name="Group 2117">
        <path id="Path_1824" data-name="Path 1824" d="M106.971,304.4a5.324,5.324,0,1,0,5.324,5.324A5.33,5.33,0,0,0,106.971,304.4Zm0,7.986a2.662,2.662,0,1,1,2.662-2.662A2.665,2.665,0,0,1,106.971,312.389Z" transform="translate(-101.647 -304.403)" fill="#4fb866"/>
      </g>
    </g>
    <g id="Group_2120" data-name="Group 2120" transform="translate(27.286 81.183)">
      <g id="Group_2119" data-name="Group 2119" transform="translate(0 0)">
        <path id="Path_1825" data-name="Path 1825" d="M338.956,111.523a1.332,1.332,0,0,0-1.19-.733h-7.01v2.662h6.189l3.624,7.209,2.379-1.2Z" transform="translate(-330.756 -110.79)" fill="#4fb866"/>
      </g>
    </g>
    <g id="Group_2122" data-name="Group 2122" transform="translate(17.836 101.193)">
      <g id="Group_2121" data-name="Group 2121" transform="translate(0 0)">
        <rect id="Rectangle_437" data-name="Rectangle 437" width="10.071" height="2.662" fill="#4fb866"/>
      </g>
    </g>
    <g id="Group_2124" data-name="Group 2124" transform="translate(3.771 101.193)">
      <g id="Group_2123" data-name="Group 2123" transform="translate(0 0)">
        <path id="Path_1826" data-name="Path 1826" d="M51.66,353.345H47.046a1.331,1.331,0,1,0,0,2.662H51.66a1.331,1.331,0,1,0,0-2.662Z" transform="translate(-45.715 -353.345)" fill="#4fb866"/>
      </g>
    </g>
    <g id="Group_2126" data-name="Group 2126" transform="translate(3.771 78.521)">
      <g id="Group_2125" data-name="Group 2125" transform="translate(0 0)">
        <path id="Path_1827" data-name="Path 1827" d="M83.9,93.056l-2.618-3.372a1.329,1.329,0,0,0-1.051-.515H70.561V79.852a1.331,1.331,0,0,0-1.331-1.331H47.046a1.331,1.331,0,1,0,0,2.662H67.9V90.5a1.331,1.331,0,0,0,1.331,1.331H79.581l1.938,2.5v6.865H77.837a1.331,1.331,0,0,0,0,2.662h5.014a1.331,1.331,0,0,0,1.331-1.331V93.872A1.333,1.333,0,0,0,83.9,93.056Z" transform="translate(-45.715 -78.521)" fill="#4fb866"/>
      </g>
    </g>
    <g id="Group_2128" data-name="Group 2128" transform="translate(2.174 94.449)">
      <g id="Group_2127" data-name="Group 2127">
        <path id="Path_1828" data-name="Path 1828" d="M33.807,271.6H27.684a1.331,1.331,0,1,0,0,2.662h6.123a1.331,1.331,0,0,0,0-2.662Z" transform="translate(-26.353 -271.597)" fill="#4fb866"/>
      </g>
    </g>
    <g id="Group_2130" data-name="Group 2130" transform="translate(0 89.214)">
      <g id="Group_2129" data-name="Group 2129" transform="translate(0 0)">
        <path id="Path_1829" data-name="Path 1829" d="M12.689,208.134H1.331a1.331,1.331,0,0,0,0,2.662H12.689a1.331,1.331,0,0,0,0-2.662Z" transform="translate(0 -208.134)" fill="#4fb866"/>
      </g>
    </g>
    <g id="Group_2132" data-name="Group 2132" transform="translate(2.174 83.978)">
      <g id="Group_2131" data-name="Group 2131" transform="translate(0 0)">
        <path id="Path_1830" data-name="Path 1830" d="M39.042,144.672H27.684a1.331,1.331,0,1,0,0,2.662H39.042a1.331,1.331,0,1,0,0-2.662Z" transform="translate(-26.353 -144.672)" fill="#4fb866"/>
      </g>
    </g>
  </g>
</svg>
