<svg xmlns="http://www.w3.org/2000/svg" width="31" height="31" viewBox="0 0 31 31">
  <g id="iv" transform="translate(-1686 -953)">
    <rect id="Rectangle_514" data-name="Rectangle 514" width="31" height="31" rx="2" transform="translate(1686 953)" fill="#fff"/>
    <path id="i" d="M4.966-21H1.783V-9.126H4.966ZM1.6-6.053a1.562,1.562,0,0,0,.477,1.174,1.793,1.793,0,0,0,1.3.461,1.8,1.8,0,0,0,1.295-.461,1.553,1.553,0,0,0,.483-1.174,1.557,1.557,0,0,0-.488-1.185A1.8,1.8,0,0,0,3.375-7.7a1.8,1.8,0,0,0-1.289.461A1.557,1.557,0,0,0,1.6-6.053Z" transform="translate(1698.402 981)" fill="#fd3434"/>
  </g>
</svg>
