<svg xmlns="http://www.w3.org/2000/svg" width="52.29" height="47.953" viewBox="0 0 52.29 47.953">
  <g id="express-delivery" transform="translate(0 -21.232)">
    <path id="Path_1584" data-name="Path 1584" d="M378.647,80.3a.766.766,0,0,0,.766-.766V78.5a.766.766,0,0,0-1.532,0v1.03A.766.766,0,0,0,378.647,80.3Z" transform="translate(-339.288 -50.735)" fill="#1e1e2d"/>
    <path id="Path_1585" data-name="Path 1585" d="M460.246,169.418a.766.766,0,0,0,0,1.532h1.03a.766.766,0,0,0,0-1.532Z" transform="translate(-412.554 -133.052)" fill="#1e1e2d"/>
    <path id="Path_1586" data-name="Path 1586" d="M286.967,169.418a.766.766,0,0,0,0,1.532H288a.766.766,0,0,0,0-1.532Z" transform="translate(-256.972 -133.052)" fill="#1e1e2d"/>
    <path id="Path_1587" data-name="Path 1587" d="M396.585,408.987a2.467,2.467,0,1,0,2.467,2.467A2.47,2.47,0,0,0,396.585,408.987Zm0,3.4a.935.935,0,1,1,.935-.935A.936.936,0,0,1,396.585,412.389Z" transform="translate(-353.867 -348.154)" fill="#1e1e2d"/>
    <path id="Path_1588" data-name="Path 1588" d="M144.424,411.454a2.467,2.467,0,1,0,2.467-2.467A2.47,2.47,0,0,0,144.424,411.454Zm3.4,0a.935.935,0,1,1-.935-.935A.936.936,0,0,1,147.826,411.454Z" transform="translate(-129.674 -348.154)" fill="#1e1e2d"/>
    <path id="Path_1589" data-name="Path 1589" d="M148.069,254.883a2.266,2.266,0,0,0-.018-3.262l-3.184-3.1a2.91,2.91,0,0,0-4.11.056l-.6.613a.766.766,0,0,0,.015,1.083l3.069,2.987-3.069,2.987a.766.766,0,0,0-.015,1.083l.6.613a2.906,2.906,0,0,0,4.11.055Zm-6.214,1.992-.062-.064,3.084-3a.766.766,0,0,0,0-1.1l-3.084-3,.062-.064a1.376,1.376,0,0,1,1.944-.026l3.184,3.1a.73.73,0,0,1,.018,1.066l-3.2,3.116A1.374,1.374,0,0,1,141.855,256.875Z" transform="translate(-125.652 -203.339)" fill="#1e1e2d"/>
    <path id="Path_1590" data-name="Path 1590" d="M377.881,121.514a.766.766,0,0,0,.766.766h2.6a.766.766,0,1,0,0-1.532h-1.839v-4.77a.766.766,0,1,0-1.532,0Z" transform="translate(-339.288 -84.382)" fill="#1e1e2d"/>
    <path id="Path_1591" data-name="Path 1591" d="M121.387,99.352h13.189a.766.766,0,0,0,0-1.532H121.387a.766.766,0,0,0,0,1.532Z" transform="translate(-108.302 -68.766)" fill="#1e1e2d"/>
    <path id="Path_1592" data-name="Path 1592" d="M90.083,138.1h13.691a.766.766,0,1,0,0-1.532H90.083a.766.766,0,1,0,0,1.532Z" transform="translate(-80.195 -103.556)" fill="#1e1e2d"/>
    <path id="Path_1593" data-name="Path 1593" d="M166.774,171.121a.766.766,0,0,0,0,1.532h6.813a.766.766,0,0,0,0-1.532Z" transform="translate(-149.054 -134.581)" fill="#1e1e2d"/>
    <path id="Path_1594" data-name="Path 1594" d="M103.541,171.121a.766.766,0,1,0,0,1.532h3.4a.766.766,0,1,0,0-1.532Z" transform="translate(-92.279 -134.581)" fill="#1e1e2d"/>
    <path id="Path_1595" data-name="Path 1595" d="M.766,275.938h2.8a.766.766,0,1,0,0-1.532H.766a.766.766,0,1,0,0,1.532Z" transform="translate(0 -227.318)" fill="#1e1e2d"/>
    <path id="Path_1596" data-name="Path 1596" d="M2.809,355.47H.766a.766.766,0,1,0,0,1.532H2.809a.766.766,0,1,0,0-1.532Z" transform="translate(0 -300.103)" fill="#1e1e2d"/>
    <path id="Path_1597" data-name="Path 1597" d="M84.983,291.959H82.251a.766.766,0,1,0,0,1.532h2.732a.766.766,0,1,0,0-1.532Z" transform="translate(-73.163 -243.078)" fill="#1e1e2d"/>
    <path id="Path_1598" data-name="Path 1598" d="M46.572,47.864A12.972,12.972,0,0,0,52.29,37.132,12.8,12.8,0,0,0,50.9,31.3a.766.766,0,0,0-1.367.691,11.28,11.28,0,0,1,1.221,5.137,11.435,11.435,0,0,1-5.233,9.587l-4.459-4.88a2.747,2.747,0,0,0-2.024-.892H28.614A11.4,11.4,0,0,1,47.895,29.578a.766.766,0,0,0,1.147-1.016,12.942,12.942,0,0,0-3.966-3.027V22.942a1.711,1.711,0,0,0-1.71-1.71H35.352a1.711,1.711,0,0,0-1.71,1.71v2.593A12.937,12.937,0,0,0,27,40.947H7.468A1.867,1.867,0,0,0,5.61,42.66h-2.8a.766.766,0,0,0,0,1.532H5.6v7.4H.766a.766.766,0,1,0,0,1.532H5.6v2.24a.766.766,0,0,0,0,1.531v5.418a1.46,1.46,0,0,0,1.458,1.458H9.122v.533H6.732a.766.766,0,1,0,0,1.532H9.888a.766.766,0,0,0,.766-.766v-1.3h.7a5.883,5.883,0,0,0,8.77,4.642.766.766,0,0,0-.758-1.332,4.347,4.347,0,1,1,1.783-1.915.766.766,0,0,0,1.383.659,5.817,5.817,0,0,0,.55-2.055H36.854a5.883,5.883,0,0,0,11.729,0h1.577a2.133,2.133,0,0,0,2.131-2.131V55.183a2.728,2.728,0,0,0-.716-1.845Zm-11.4-24.923a.178.178,0,0,1,.178-.178h8.014a.178.178,0,0,1,.178.178V24.9a12.915,12.915,0,0,0-8.369,0V22.942Zm4.761,19.931L47.906,51.6H42.192a.766.766,0,0,0,0,1.532h7.114l1.137,1.244c.464.507.269,1.058.315,1.642h-.591a.766.766,0,1,0,0,1.532h.591v1.133h-4.4a5.866,5.866,0,0,0-7.276,0H30.734v-16.2h3.3v9.107a1.543,1.543,0,0,0,1.542,1.542H39.13a.766.766,0,1,0,0-1.532H35.579a.01.01,0,0,1-.01-.01V42.479h3.473A1.212,1.212,0,0,1,39.935,42.873ZM36.93,62.244h-6.2V60.211h6.977A5.846,5.846,0,0,0,36.93,62.244ZM22.224,60.211H29.2v2.032h-6.2a5.846,5.846,0,0,0-.782-2.032Zm-15.089,0H12.21a5.846,5.846,0,0,0-.782,2.032H7.135Zm6.444-1.532H7.135V56.9h3.319a.766.766,0,1,0,0-1.532H7.135v-2.24h3.319a.766.766,0,1,0,0-1.532H7.135V42.813a.334.334,0,0,1,.334-.334H29.2v16.2H20.855a5.866,5.866,0,0,0-7.276,0Zm29.139,8.974A4.353,4.353,0,1,1,47.071,63.3,4.358,4.358,0,0,1,42.718,67.653Zm7.441-5.41H48.506a5.846,5.846,0,0,0-.782-2.032h3.034v1.433A.6.6,0,0,1,50.159,62.244Z" fill="#1e1e2d"/>
  </g>
</svg>
