<svg id="left-arrow" xmlns="http://www.w3.org/2000/svg" width="44.916" height="29" viewBox="0 0 44.916 29">
  <g id="Group_2201" data-name="Group 2201" transform="translate(26.201)">
    <g id="Group_2200" data-name="Group 2200">
      <path id="Path_1869" data-name="Path 1869" d="M.849,82.306h0L11,72.558.85,62.809a2.726,2.726,0,0,1,0-3.955,2.921,2.921,0,0,1,4.009,0L18.427,71.883a.936.936,0,0,1,0,1.35L4.86,86.261a2.922,2.922,0,0,1-4.01,0,2.727,2.727,0,0,1,0-3.956Zm1.3,2.606a1.046,1.046,0,0,0,1.417,0L16.429,72.558,3.562,60.2a1.045,1.045,0,0,0-1.417,0,.856.856,0,0,0,0,1.256L13,71.883a.936.936,0,0,1,0,1.35L2.147,83.654a.856.856,0,0,0,0,1.257Z" transform="translate(0 -58.058)" fill="#eb7e2d"/>
    </g>
  </g>
  <g id="Group_2203" data-name="Group 2203" transform="translate(13.1 0)">
    <g id="Group_2202" data-name="Group 2202">
      <path id="Path_1870" data-name="Path 1870" d="M96.425,82.307l10.152-9.747L96.425,62.812a2.726,2.726,0,0,1,0-3.955,2.922,2.922,0,0,1,4.01,0L114,71.885a.936.936,0,0,1,0,1.35L100.435,86.264a2.923,2.923,0,0,1-4.01,0,2.727,2.727,0,0,1,0-3.956Zm1.3,2.606a1.047,1.047,0,0,0,1.418,0L112,72.56,99.14,60.206a1.047,1.047,0,0,0-1.418,0,.856.856,0,0,0,0,1.256l10.854,10.424a.936.936,0,0,1,0,1.35L97.722,83.657a.856.856,0,0,0,0,1.257Z" transform="translate(-95.575 -58.06)" fill="#eb7e2d"/>
    </g>
  </g>
  <g id="Group_2205" data-name="Group 2205" transform="translate(0 0.001)">
    <g id="Group_2204" data-name="Group 2204">
      <path id="Path_1871" data-name="Path 1871" d="M192,82.312h0l10.152-9.747L192,62.816a2.726,2.726,0,0,1,0-3.955,2.924,2.924,0,0,1,4.01,0L209.575,71.89a.936.936,0,0,1,0,1.35L196.008,86.269a2.924,2.924,0,0,1-4.01,0,2.728,2.728,0,0,1,0-3.956Zm1.3,2.606a1.034,1.034,0,0,0,1.418,0l12.865-12.354L194.712,60.211a1.035,1.035,0,0,0-1.418,0,.856.856,0,0,0,0,1.256l10.854,10.424a.936.936,0,0,1,0,1.35L193.295,83.661a.856.856,0,0,0,0,1.257Z" transform="translate(-191.148 -58.065)" fill="#eb7e2d"/>
    </g>
  </g>
</svg>
