<svg id="Group_2083" data-name="Group 2083" xmlns="http://www.w3.org/2000/svg" width="54.797" height="54.797" viewBox="0 0 54.797 54.797">
  <g id="Group_2082" data-name="Group 2082" transform="translate(0 0)">
    <path id="Path_1714" data-name="Path 1714" d="M384.77,416.89a27.4,27.4,0,1,0-27.4,27.4A27.4,27.4,0,0,0,384.77,416.89Z" transform="translate(-329.973 -389.492)" fill="#3d83d9"/>
    <g id="Group_2081" data-name="Group 2081" transform="translate(14.353 11.649)">
      <rect id="Rectangle_417" data-name="Rectangle 417" width="6.342" height="18.126" transform="translate(0 9.063)" fill="#fff"/>
      <path id="Path_1715" data-name="Path 1715" d="M370.763,420.023a3.173,3.173,0,1,0,3.171,3.171A3.176,3.176,0,0,0,370.763,420.023Z" transform="translate(-367.592 -420.023)" fill="#fff"/>
      <path id="Path_1716" data-name="Path 1716" d="M410.934,449.345c-.427-3.416-2.135-5.568-6.754-5.568-3.278,0-4.581.511-5.333,1.942h0v-1.942h-5.134V461.9H399v-9.488c0-2.369.449-4.158,3.377-4.158,2.887,0,3.119,2.2,3.119,4.311V461.9h5.441S411.035,450.143,410.934,449.345Z" transform="translate(-383.747 -434.714)" fill="#fff"/>
    </g>
  </g>
</svg>
