<svg xmlns="http://www.w3.org/2000/svg" width="52.717" height="26.724" viewBox="0 0 52.717 26.724">
  <g id="mail-send" transform="translate(0 -85.26)">
    <path id="Path_2077" data-name="Path 2077" d="M92.762,111.962l.059-.014.05-.013.056-.02.049-.018.052-.024.05-.024.048-.028c.016-.01.033-.019.049-.03s.033-.024.049-.036l.041-.031c.025-.02.048-.042.071-.064l.013-.011.012-.013c.022-.023.043-.046.063-.07s.022-.029.033-.044.023-.03.034-.046.021-.034.032-.052.018-.029.026-.044.017-.036.026-.054.015-.032.022-.048.013-.035.02-.053.013-.035.018-.052.009-.036.014-.055.01-.036.013-.054.007-.043.01-.065.005-.03.007-.046a1.141,1.141,0,0,0,.006-.114V86.4a1.143,1.143,0,0,0-1.143-1.143H56.527l-.03,0-.065,0-.051.006-.058.009-.054.011-.054.014-.053.016-.053.02-.049.021-.054.026-.045.024-.052.032-.042.028-.048.036-.042.035-.041.037-.044.045-.022.022-.011.014c-.014.017-.028.034-.041.052l-.029.039c-.012.017-.023.035-.034.052s-.018.029-.027.044-.018.035-.027.052-.016.032-.023.048-.014.035-.021.053-.013.034-.019.052-.01.035-.015.053-.01.036-.014.055-.006.035-.009.052-.007.04-.009.059,0,.033,0,.05,0,.043,0,.064c0,.006,0,.012,0,.019v7.05a1.143,1.143,0,0,0,2.287,0V88.942l10.164,9a1.155,1.155,0,0,0-.152.126L57.67,108.08v-7.513a1.143,1.143,0,0,0-2.287,0v1.4H49.476a1.143,1.143,0,1,0,0,2.286h5.907v6.59a1.143,1.143,0,0,0,1.143,1.143H92.539c.038,0,.075,0,.113-.006l.052-.007ZM91.4,108.08,81.383,98.067l-.02-.018,7.528-6.387a1.143,1.143,0,1,0-1.479-1.743L74.549,100.832,59.542,87.547H91.4Zm-22.1-8.4a1.139,1.139,0,0,0,.2-.269l4.276,3.786a1.143,1.143,0,0,0,1.5.016l4.358-3.7a1.149,1.149,0,0,0,.136.165L89.779,109.7H59.287Z" transform="translate(-40.965)" fill="#535aa2"/>
    <path id="Path_2078" data-name="Path 2078" d="M1.143,157.962H20.452a1.143,1.143,0,1,0,0-2.286H1.143a1.143,1.143,0,1,0,0,2.286Z" transform="translate(0 -59.682)" fill="#535aa2"/>
    <path id="Path_2079" data-name="Path 2079" d="M14.268,116.632h8.67a1.143,1.143,0,1,0,0-2.286h-8.67a1.143,1.143,0,1,0,0,2.286Z" transform="translate(-11.124 -24.651)" fill="#535aa2"/>
    <path id="Path_2080" data-name="Path 2080" d="M9.527,226.51H1.143a1.143,1.143,0,0,0,0,2.287H9.527a1.143,1.143,0,0,0,0-2.287Z" transform="translate(0 -119.719)" fill="#535aa2"/>
  </g>
</svg>
