<svg xmlns="http://www.w3.org/2000/svg" width="33.234" height="33.234" viewBox="0 0 33.234 33.234">
  <g id="ic_attach_file_24px" transform="translate(18.385 -5.657) rotate(45)">
    <g id="Group_318" data-name="Group 318" transform="translate(7 1)">
      <path id="Path_2220" data-name="Path 2220" d="M19.955,8.273V25A5.644,5.644,0,0,1,14.5,30.818,5.644,5.644,0,0,1,9.045,25V6.818a3.53,3.53,0,0,1,3.409-3.636,3.53,3.53,0,0,1,3.409,3.636V22.091a1.366,1.366,0,1,1-2.727,0V8.273H11.091V22.091A3.53,3.53,0,0,0,14.5,25.727a3.53,3.53,0,0,0,3.409-3.636V6.818A5.644,5.644,0,0,0,12.455,1,5.644,5.644,0,0,0,7,6.818V25a7.758,7.758,0,0,0,7.5,8A7.758,7.758,0,0,0,22,25V8.273Z" transform="translate(-7 -1)" fill="#7d8c95"/>
    </g>
  </g>
</svg>