<svg xmlns="http://www.w3.org/2000/svg" width="41.826" height="26.458" viewBox="0 0 41.826 26.458">
  <g id="shipped" transform="translate(0 -94.062)">
    <g id="Group_2135" data-name="Group 2135" transform="translate(0 94.062)">
      <g id="Group_2134" data-name="Group 2134">
        <path id="Path_1838" data-name="Path 1838" d="M38.9,105.278l-1.083-4.332a.655.655,0,0,0,.518-.64v-.7a2.754,2.754,0,0,0-2.751-2.751H30.649V95.415A1.355,1.355,0,0,0,29.3,94.062H4.148a1.355,1.355,0,0,0-1.353,1.353v11.875a.655.655,0,0,0,1.31,0V95.415a.044.044,0,0,1,.044-.044H29.3a.044.044,0,0,1,.044.044v11.876a.655.655,0,0,0,1.31,0v-.742h7.729a2.143,2.143,0,0,1,2.035,1.484H38.377a.655.655,0,0,0-.655.655v1.4a2.054,2.054,0,0,0,2.052,2.052h.742v2.881H38.8a4.146,4.146,0,0,0-7.839,0h-.315v-4.934a.655.655,0,1,0-1.31,0v4.933H15.751a4.146,4.146,0,0,0-7.839,0H4.148a.044.044,0,0,1-.044-.044v-1.441H6.942a.655.655,0,1,0,0-1.31H.655a.655.655,0,1,0,0,1.31H2.794v1.441a1.355,1.355,0,0,0,1.353,1.353H7.685c0,.015,0,.029,0,.044a4.148,4.148,0,0,0,8.3,0c0-.015,0-.029,0-.044H30.737c0,.015,0,.029,0,.044a4.148,4.148,0,0,0,8.3,0c0-.015,0-.029,0-.044h2.141a.655.655,0,0,0,.655-.655v-6.985A3.454,3.454,0,0,0,38.9,105.278Zm-8.249-7.112h4.933a1.442,1.442,0,0,1,1.441,1.441v.044H30.649Zm0,7.073V100.96h5.819l1.07,4.279ZM11.832,119.21a2.838,2.838,0,1,1,2.838-2.838A2.841,2.841,0,0,1,11.832,119.21Zm23.052,0a2.838,2.838,0,1,1,2.838-2.838A2.841,2.841,0,0,1,34.884,119.21Zm5.632-8.383h-.742a.743.743,0,0,1-.742-.742v-.742h1.484v1.484Z" transform="translate(0 -94.062)" fill="#4fb866"/>
      </g>
    </g>
    <g id="Group_2137" data-name="Group 2137" transform="translate(10.478 115.019)">
      <g id="Group_2136" data-name="Group 2136">
        <path id="Path_1839" data-name="Path 1839" d="M129.62,350.6a1.353,1.353,0,1,0,1.353,1.353A1.355,1.355,0,0,0,129.62,350.6Z" transform="translate(-128.267 -350.597)" fill="#4fb866"/>
      </g>
    </g>
    <g id="Group_2139" data-name="Group 2139" transform="translate(33.531 115.019)">
      <g id="Group_2138" data-name="Group 2138">
        <path id="Path_1840" data-name="Path 1840" d="M411.808,350.6a1.353,1.353,0,1,0,1.353,1.353A1.355,1.355,0,0,0,411.808,350.6Z" transform="translate(-410.455 -350.597)" fill="#4fb866"/>
      </g>
    </g>
    <g id="Group_2141" data-name="Group 2141" transform="translate(16.765 112.224)">
      <g id="Group_2140" data-name="Group 2140">
        <path id="Path_1841" data-name="Path 1841" d="M215.662,316.393h-9.78a.655.655,0,0,0,0,1.31h9.78a.655.655,0,1,0,0-1.31Z" transform="translate(-205.227 -316.393)" fill="#4fb866"/>
      </g>
    </g>
    <g id="Group_2143" data-name="Group 2143" transform="translate(1.397 109.43)">
      <g id="Group_2142" data-name="Group 2142" transform="translate(0 0)">
        <path id="Path_1842" data-name="Path 1842" d="M26.14,282.188H17.757a.655.655,0,0,0,0,1.31H26.14a.655.655,0,0,0,0-1.31Z" transform="translate(-17.102 -282.188)" fill="#4fb866"/>
      </g>
    </g>
    <g id="Group_2145" data-name="Group 2145" transform="translate(11.875 100.349)">
      <g id="Group_2144" data-name="Group 2144" transform="translate(0 0)">
        <path id="Path_1843" data-name="Path 1843" d="M156.267,171.214a.655.655,0,0,0-.926,0l-5.824,5.824-3.03-3.03a.655.655,0,0,0-.926.926l3.493,3.493a.655.655,0,0,0,.926,0l6.287-6.287A.655.655,0,0,0,156.267,171.214Z" transform="translate(-145.37 -171.023)" fill="#4fb866"/>
      </g>
    </g>
  </g>
</svg>
