<svg xmlns="http://www.w3.org/2000/svg" width="37.598" height="36.062" viewBox="0 0 37.598 36.062">
  <path id="star" d="M8.181,35.517a1.945,1.945,0,0,1-1.893-2.376L8.639,22.784.665,15.791a1.944,1.944,0,0,1,1.1-3.4l10.55-.958,4.171-9.761a1.942,1.942,0,0,1,3.573,0l4.171,9.763,10.549.958a1.945,1.945,0,0,1,1.1,3.4l-7.974,6.991,2.351,10.357a1.942,1.942,0,0,1-2.89,2.1l-9.1-5.437-9.1,5.44a1.947,1.947,0,0,1-1,.276Zm10.093-8.057a1.947,1.947,0,0,1,1,.275l8.586,5.135-2.219-9.775a1.942,1.942,0,0,1,.615-1.893l7.529-6.6-9.961-.9a1.94,1.94,0,0,1-1.614-1.177L18.274,3.305l-3.937,9.213a1.935,1.935,0,0,1-1.609,1.173l-9.962.9,7.529,6.6a1.938,1.938,0,0,1,.615,1.894L8.692,32.868l8.586-5.133a1.946,1.946,0,0,1,1-.275ZM12.236,11.623a0,0,0,0,1,0,0Zm12.073,0,0,0S24.311,11.62,24.309,11.618Zm0,0" transform="translate(0.525 0.008)" fill="#b5b5b5" stroke="#b5b5b5" stroke-width="1"/>
</svg>
