<svg xmlns="http://www.w3.org/2000/svg" width="150" height="150" viewBox="0 0 150 150">
  <g id="svg_service4" transform="translate(-1470 -2297)">
    <g id="Ellipse_125" data-name="Ellipse 125" transform="translate(1470 2297)" fill="none" stroke="#fff" stroke-width="3">
      <circle cx="75" cy="75" r="75" stroke="none"/>
      <circle cx="75" cy="75" r="73.5" fill="none"/>
    </g>
    <path id="Path_2268" data-name="Path 2268" d="M874.025,396.1c.332-4.832-2.393-13.257-10.985-11.986-6.413,1.84-46.4,12.273-48.792,14.738a6.767,6.767,0,0,0-1.9,4.785l1.223,81.029a6.779,6.779,0,0,0,2.058,4.714,6.68,6.68,0,0,0,4.764,1.891l56.735-.864a6.707,6.707,0,0,0,6.608-6.816l-1.246-81.03a6.7,6.7,0,0,0-6.8-6.605Zm-44.418,1.008,33.7-9.716c6.675-1.2,6.937,5.765,6.795,8.639Zm4.646,57.742h5.719a27.8,27.8,0,0,0,3.4,6.8,17.392,17.392,0,0,1-7.01-4.286,15.791,15.791,0,0,1-2.106-2.51Zm7.871,6.435Zm18.688-3.926a17.332,17.332,0,0,1-7.513,4.431,26.664,26.664,0,0,0,3.471-6.941h6.124a15.852,15.852,0,0,1-2.082,2.51Zm-15.506,4.763h0a25.147,25.147,0,0,1-3.976-7.272h6.609v7.585a18.882,18.882,0,0,1-2.633-.313Zm-14-16.343h7.133a30.567,30.567,0,0,0,1.15,7.8h-6.1a17.114,17.114,0,0,1-2.181-7.8ZM849.255,435.4h0v-7.562a20.715,20.715,0,0,1,2.131.215,25.567,25.567,0,0,1,4.042,7.347Zm6.581,1.269h0a29.367,29.367,0,0,1,1.217,7.823h-7.8v-7.823Zm-7.9-1.269H841.33a25.63,25.63,0,0,1,3.976-7.252,19.277,19.277,0,0,1,2.633-.31Zm0,1.269h0v7.823h-8.234a29.516,29.516,0,0,1,1.223-7.823Zm-9.5,7.823h-7.133a17.211,17.211,0,0,1,2.181-7.823h6.1a30.586,30.586,0,0,0-1.15,7.823Zm1.266,1.293h8.234v7.8H840.9a30.307,30.307,0,0,1-1.2-7.8Zm9.549,9.07h6.173a25.2,25.2,0,0,1-4.042,7.37c-.7.092-1.416.168-2.131.215Zm0-1.27h0v-7.8h7.8a29.158,29.158,0,0,1-1.217,7.8Zm9.07-7.8h7.562a17.209,17.209,0,0,1-2.25,7.874v-.073h-6.462a30.729,30.729,0,0,0,1.15-7.8Zm0-1.293h0a29.721,29.721,0,0,0-1.174-7.823h6.533a17.552,17.552,0,0,1,2.2,7.823Zm4.569-9.092H856.77a27.572,27.572,0,0,0-3.471-6.917,17.317,17.317,0,0,1,7.513,4.4,18.936,18.936,0,0,1,2.082,2.514Zm-26.535-2.514h0a17.077,17.077,0,0,1,7.01-4.233A26.111,26.111,0,0,0,840,435.4h-5.721a18.946,18.946,0,0,1,2.084-2.514Z" transform="translate(696.648 1934.014)" fill="#fff" fill-rule="evenodd"/>
  </g>
</svg>
