<svg xmlns="http://www.w3.org/2000/svg" width="150" height="150" viewBox="0 0 150 150">
  <g id="svg_service1" transform="translate(-340 -2297)">
    <path id="Path_2269" data-name="Path 2269" d="M689.844,530.992l-.9.675c-.577.456-1.416,1.083-2.489,1.93-.537.5-1.136,1.043-1.782,1.631a20.539,20.539,0,0,0-2,1.954c-.684.736-1.394,1.5-2.121,2.342-.688.868-1.4,1.8-2.147,2.758-.712,1-1.353,2.085-2.063,3.189a15.757,15.757,0,0,0-.967,1.757c-.321.588-.646,1.2-.965,1.828-.6,1.254-1.094,2.6-1.653,3.949-.214.714-.452,1.408-.667,2.126a18.581,18.581,0,0,0-.6,2.194,35.18,35.18,0,0,0-.8,4.557c-.084.781-.194,1.561-.233,2.343,0,.8-.025,1.606-.025,2.391a10.835,10.835,0,0,0,.025,1.214l.1,1.193c.086.808.128,1.607.239,2.411l.491,2.367a11.214,11.214,0,0,0,.258,1.194l.387,1.15c.259.759.474,1.561.771,2.3l.989,2.194a13.78,13.78,0,0,0,1.137,2.1c.429.7.8,1.368,1.264,2.065.475.629.927,1.238,1.375,1.847.518.582,1.051,1.168,1.567,1.753a29.464,29.464,0,0,0,3.348,3.066,34.079,34.079,0,0,0,7.343,4.361,36.443,36.443,0,0,0,7.25,2.171,33.284,33.284,0,0,0,3.33.456c.534.045,1.053.107,1.565.129.493.024.989.045,1.458.045.387,0,.751.022,1.1.022h.277c.453-.022.881-.042,1.29-.067s.79-.041,1.178-.041c.365-.043.733-.087,1.053-.13.686-.086,1.287-.131,1.8-.218s.965-.173,1.332-.24c.706-.107,1.094-.191,1.094-.191s-.387.061-1.118.151c-.363.04-.793.107-1.308.172-.534.063-1.136.084-1.8.15l-1.071.067h-2.45c-.429,0-.877-.045-1.351-.067s-.967-.067-1.458-.087c-.492-.063-.989-.129-1.523-.2-1.055-.107-2.125-.387-3.242-.586a37.763,37.763,0,0,1-7.02-2.45,30.166,30.166,0,0,1-9.96-7.533c-.449-.566-.922-1.131-1.374-1.694-.427-.631-.856-1.257-1.309-1.887a31.669,31.669,0,0,1-3.54-8.25l-.3-1.086a10.583,10.583,0,0,1-.193-1.13l-.367-2.211c-.06-.759-.087-1.52-.126-2.26l-.065-1.107a9.213,9.213,0,0,1,.042-1.128c.044-.735.061-1.477.107-2.216.065-.736.215-1.451.3-2.169a36.977,36.977,0,0,1,.925-4.187,19.1,19.1,0,0,1,.644-2c.233-.651.448-1.3.686-1.954.577-1.216,1.1-2.451,1.7-3.582.319-.564.641-1.106.939-1.648a16.488,16.488,0,0,1,.965-1.586c.709-.974,1.33-1.976,2.042-2.867.728-.845,1.413-1.669,2.058-2.451.729-.736,1.419-1.412,2.059-2.06a17.638,17.638,0,0,1,1.848-1.674c.6-.5,1.136-.956,1.611-1.367,1.094-.8,1.995-1.413,2.574-1.826.6-.41.926-.648.926-.648l-2.471-3.411Zm41.49,76.262a1.037,1.037,0,0,1,.538-.456c.3-.652.8-.78,1.95-1.172,2.773-.434,5.519-.844,8.33-1.107.922-.542,1.848-1.109,2.77-1.652.706-1.366,1.478-2.774,2.211-4.146.387-.042.664-.063,1.029-.13-.084,1.716-.194,3.411-.278,5.146.773-.368,1.5-.695,2.275-1.088.17-.061.385-.106.429-.061-.709.54-1.44,1.1-2.167,1.647a1.119,1.119,0,0,1-.193.741c-1.117.519-2.258,1-3.394,1.475a49.328,49.328,0,0,1-7.382,1.758.563.563,0,0,1,.044.3.209.209,0,0,1-.154.15c-.128.067-.149.067-.277.133-.022.045-.043.2-.132.216a4.668,4.668,0,0,1-2.272.13.857.857,0,0,1-.128-1.1c-1.076.023-2.081.3-3.112-.523-.11-.106-.128-.106-.089-.26Zm.109.154.278-.371.363-.087-.277.369Zm2.618-.826h.066c0-.024.02,0,.02.022l.044.171a.022.022,0,0,1-.023.023l-.064.022a.022.022,0,0,1-.023-.022l-.044-.173c0-.021,0-.042.023-.042Zm2.251-.241.066-.018a.076.076,0,0,1,.044.018l.044.177a.045.045,0,0,1-.044.04l-.044.024c-.02,0-.04,0-.04-.024l-.044-.172a.083.083,0,0,1,.018-.045Zm7.086-.781.065-.023a.02.02,0,0,1,.019.023l.044.172c0,.026,0,.045-.023.045l-.041.024a.051.051,0,0,1-.044-.042l-.042-.177a.021.021,0,0,1,.022-.022Zm-.324.045.065-.023a.023.023,0,0,1,.024.023l.042.172c0,.024,0,.046-.022.046h-.044c-.02.019-.04,0-.04-.022l-.044-.175s0-.022.019-.022Zm-.32.042.042-.021c.024,0,.046,0,.046.021l.039.176a.044.044,0,0,1-.039.041H742.8c-.02.024-.042,0-.042-.022l-.044-.173a.071.071,0,0,1,.044-.022Zm-.323.022h.066s.018,0,.018.024l.044.171c0,.024,0,.024-.02.045H742.5c-.022,0-.044,0-.044-.021l-.042-.175c0-.021,0-.021.02-.045Zm-.324.024.066-.024a.085.085,0,0,1,.023.045l.042.151c0,.024,0,.045-.02.045l-.044.022c-.022,0-.041,0-.041-.022l-.044-.177c0-.018,0-.039.019-.039Zm-.319.039.042-.018a.08.08,0,0,1,.044.018l.039.177a.068.068,0,0,1-.017.04l-.066.024c-.022,0-.022-.024-.042-.024l-.024-.172c-.02-.018,0-.045.024-.045Zm-.323.045.065-.018c.019,0,.019.018.042.018l.022.172c0,.024,0,.045-.022.045l-.042.024c-.019,0-.044,0-.044-.024l-.041-.171c0-.022,0-.046.02-.046Zm-.3.024h.042c.022,0,.044,0,.044.022l.042.171c0,.024,0,.024-.02.045h-.066c0,.022-.02,0-.02-.021l-.045-.176c0-.019,0-.019.024-.041Zm-.3.041.066-.019.023.019.04.176c0,.021,0,.043-.022.043l-.041.021a.072.072,0,0,1-.042-.021l-.044-.172c0-.024,0-.046.02-.046Zm-.319.046.063-.024c.02,0,.02.024.042.024l.023.172c0,.021,0,.045-.023.045l-.042.021a.06.06,0,0,1-.041-.021l-.044-.175c0-.022,0-.042.023-.042Zm-.281.021h.042c.024,0,.044,0,.044.022l.04.175c0,.021,0,.04-.02.04h-.064c-.02.024-.02,0-.02-.02l-.045-.177a.061.061,0,0,1,.024-.04Zm-.321.04h.062c.021-.018.045,0,.045.024l.041.172c0,.024-.02.024-.041.045h-.045c-.018,0-.042,0-.042-.021l-.042-.176c0-.021.022-.021.022-.045Zm-.281.024h.042c.023,0,.044,0,.044.021l.044.176c0,.021,0,.021-.02.042H739.7c-.022,0-.022,0-.042-.022l-.02-.172c0-.024,0-.024.02-.045Zm-.3.045h.042c.019-.024.042,0,.042.021l.042.173c0,.023-.02.023-.042.045h-.042c-.02,0-.042,0-.042-.022l-.044-.175c0-.022.022-.022.044-.043Zm-.3.021.044-.021a.072.072,0,0,1,.042.021l.045.173c0,.023,0,.045-.022.045l-.066.021c-.02,0-.02,0-.044-.021l-.02-.176c-.019-.021,0-.042.02-.042Zm-.384.042.061-.021c.025,0,.044,0,.044.021l.045.176a.046.046,0,0,1-.045.039l-.044.026a.05.05,0,0,1-.041-.045l-.045-.152a.084.084,0,0,1,.025-.045Zm-.3.024h.044c.019,0,.045,0,.045.021l.039.17c0,.026-.02.026-.02.045h-.064c-.022,0-.022,0-.044-.018l-.022-.177c-.02-.02,0-.02.022-.04Zm-.385.064.066-.024s.018,0,.018.024l.044.171c0,.022,0,.045-.023.045l-.064.022a.079.079,0,0,1-.02-.045l-.044-.151c0-.022,0-.042.023-.042Zm-.258.021.044-.021a.045.045,0,0,1,.042.042l.044.151a.077.077,0,0,1-.022.045l-.065.021c-.024,0-.044,0-.044-.021l-.045-.172a.049.049,0,0,1,.045-.045Zm-.278.045.044-.023c.018,0,.04.023.04.023l.044.172a.087.087,0,0,1-.022.045l-.062.021c-.024,0-.044,0-.044-.021l-.045-.175a.05.05,0,0,1,.045-.042Zm-.259.042.044-.021c.02,0,.039,0,.039.021l.045.175a.078.078,0,0,1-.02.042h-.064c-.024.023-.044,0-.044-.022l-.042-.177a.075.075,0,0,1,.042-.018Zm-.3,0h.039a.025.025,0,0,1,.044.018l.044.177a.022.022,0,0,1-.023.022l-.066.023a.021.021,0,0,1-.02-.023l-.039-.172c0-.026,0-.045.02-.045Zm-.259.045.044-.026c.018,0,.04.026.04.026l.044.172c0,.023,0,.045-.022.045l-.062.018c-.024,0-.024-.018-.044-.018l-.022-.177c0-.022,0-.04.022-.04Zm-.624.04h.065a.022.022,0,0,1,.022.023l.042.172c0,.024,0,.024-.018.046h-.045c-.019,0-.044,0-.044-.022l-.041-.175c0-.022,0-.022.02-.045Zm-.3.065.064-.021c.02,0,.02,0,.042.021l.023.176c.022.021,0,.045-.023.045h-.042c-.018.021-.042,0-.042-.024l-.044-.172s0-.024.023-.024Zm-.3,0,.065-.021a.021.021,0,0,1,.024.021l.039.176c0,.021,0,.045-.018.045l-.044.021c-.02,0-.042,0-.042-.021l-.044-.176c0-.021,0-.045.022-.045Zm-.254.024h.039c.024,0,.044,0,.044.021l.044.176c0,.021-.023.021-.023.042H735.2c-.02,0-.02,0-.039-.022l-.024-.175c-.02-.022,0-.022.024-.042Zm-.281.042h.042c.023-.022.044,0,.044.023l.044.173a.078.078,0,0,1-.025.045h-.064c-.022,0-.022,0-.042-.028l-.024-.169c-.02-.022,0-.045.024-.045Zm-.259.045.044-.022a.066.066,0,0,1,.041.022l.047.169a.06.06,0,0,1-.025.045l-.062.022c-.024,0-.024-.022-.044-.022l-.018-.171c-.027-.024,0-.042.018-.042Zm-.3.018.065-.018s.02,0,.02.018l.04.178c0,.017,0,.039-.022.039h-.062c0,.023-.022,0-.022-.022l-.044-.171a.024.024,0,0,1,.025-.024Zm12.855-6.879-1.288,3.344-.11-.045,1.312-3.344Zm.6.172-1.308,3.344-.086-.045,1.29-3.342Zm-.169-.368-1.288,3.343-.108-.045,1.312-3.343Zm5.882.91s.3-.238.879-.7c.578-.432,1.44-1.062,2.51-1.928.537-.482,1.136-1.022,1.782-1.631a21.394,21.394,0,0,0,2-1.954c.662-.742,1.394-1.5,2.121-2.323.668-.891,1.374-1.8,2.125-2.78.734-.976,1.357-2.085,2.084-3.19a19.368,19.368,0,0,0,.967-1.737c.3-.609.62-1.216.945-1.847.6-1.234,1.094-2.6,1.673-3.947.214-.7.429-1.412.667-2.129.193-.718.471-1.411.6-2.172a35.658,35.658,0,0,0,.79-4.58c.066-.781.194-1.54.216-2.346.019-.781.019-1.581.044-2.387-.025-.387.02-.8-.025-1.191l-.1-1.217c-.086-.8-.131-1.606-.259-2.391l-.474-2.388c-.1-.389-.149-.8-.277-1.169l-.365-1.173c-.259-.76-.474-1.542-.771-2.279l-1.011-2.217a13.282,13.282,0,0,0-1.136-2.1c-.433-.694-.8-1.345-1.27-2.06-.449-.609-.9-1.215-1.374-1.824-.493-.609-1.026-1.193-1.542-1.782a31.824,31.824,0,0,0-3.371-3.058,32.667,32.667,0,0,0-7.317-4.344,38.617,38.617,0,0,0-7.277-2.192c-1.16-.176-2.251-.393-3.328-.454-.536-.045-1.052-.09-1.544-.132-.516-.023-.989-.023-1.482-.042-.363,0-.73-.021-1.073-.021-.108,0-.193.021-.3.021-.429.02-.858.042-1.266.042-.409.021-.818.042-1.181.067-.363.043-.729.087-1.07.106-.666.091-1.268.133-1.783.217-.536.111-.965.175-1.332.238-.708.13-1.094.2-1.094.2s.386-.042,1.094-.151c.367-.046.817-.109,1.332-.172s1.136-.091,1.8-.133c.343-.017.686-.045,1.071-.084h2.426c.451,0,.9.039,1.374.067s.945.06,1.437.106c.5.065,1.011.13,1.524.2,1.053.106,2.125.369,3.262.585a36.421,36.421,0,0,1,7,2.431,32.043,32.043,0,0,1,6.887,4.5,32.671,32.671,0,0,1,3.092,3.037c.451.563.9,1.127,1.374,1.713.429.609.859,1.263,1.286,1.893a29.9,29.9,0,0,1,3.544,8.223l.3,1.11c.107.346.127.739.214,1.107l.343,2.237c.09.735.108,1.5.15,2.234l.065,1.128c0,.368-.042.741-.042,1.109-.044.736-.083,1.476-.127,2.214-.066.736-.194,1.454-.3,2.171a33.23,33.23,0,0,1-.9,4.212,19.015,19.015,0,0,1-.644,1.993c-.233.654-.47,1.306-.686,1.933-.6,1.24-1.1,2.454-1.716,3.606-.321.54-.623,1.1-.943,1.647a16.051,16.051,0,0,1-.967,1.589c-.712.973-1.335,1.972-2.041,2.84s-1.395,1.694-2.06,2.477c-.709.714-1.4,1.411-2.039,2.064a17.811,17.811,0,0,1-1.867,1.668c-.58.5-1.114.956-1.613,1.368-1.07.782-1.971,1.39-2.55,1.8-.6.434-.926.651-.926.651l2.471,3.428ZM691.543,527.63c.343-.2.708-.389,1.029-.586,1.631.323,3.2.735,4.981.932,1.415-.735,2.854-1.435,4.247-2.171-.6-.112-1.244-.24-1.845-.347a2.941,2.941,0,0,1,.9-.479c1.01-.106,2-.151,2.987-.263.708-.368,1.414-.735,2.123-1.082.323-.175.646-.347.965-.522,6.378-4.906,10.284-2.494,2.126,1.453-.513.347-.987.61-1.461.871.086-.045.152-.11.235-.155a.681.681,0,0,0,.216-.236.348.348,0,0,0,0-.26.3.3,0,0,0-.3-.07h0a2.879,2.879,0,0,0-.516.218c-.15.09-.323.177-.471.286-1.291.824-2.642,1.583-3.886,2.494h0l-.023.021h0c0,.024-.066.069-.132.131a37.831,37.831,0,0,1-8.091,2.694c-.382.2-.855.477-1.18.673-.018,0-.018,0-.018.021.513-.307,1.01-.608,1.523-.89.387-.238.8-.479,1.18-.717.129-.085.278-.151.388-.235.039-.023.084-.068.128-.09.02-.021.065-.042.042-.087-.022-.064-.086-.064-.15-.045s-.131.045-.193.065a4.413,4.413,0,0,0-.56.217c-.15.067-.3.13-.449.2-.065.023-.109.067-.173.087a.378.378,0,0,0-.107.069c-.388.256-.73.5-1.095.755-.214-.2-.366-.541.13-.8-.814-.7-1.742-1.455-2.553-2.148Zm15.366-1.8h-.022a.684.684,0,0,1-.214.109c-.582.368-1.4.847-2.06,1.26h-.02c-.349.2-.752.435-1.095.649l-.044.022c-.579.372-1.18.72-1.759,1.066-.024,0-.024,0-.044.022-.642.325-1.823.871-2.319,1.149-.513.219-.706.261-1.009.37.839-.457,1.655-.911,2.532-1.39-.02.022-.02.022,0,.022a17.831,17.831,0,0,0,2.06-1.345h0c1.224-.893,2.6-1.673,3.884-2.5a3.811,3.811,0,0,1,.967-.5c.325-.063.3.284.023.479l-.771.518a.664.664,0,0,0-.108.067Zm-13.843,5.448c.085-.066.172-.132.258-.2.6-.389,1.178-.822,1.759-1.195a5.618,5.618,0,0,1,1.544-.63c.044.046-2.51,1.523-3.24,1.954-.062.024-.235.045-.32.066Zm.535-3.495.214.024h.043l.151.021h.042l.022.02v.022l.089.2.086.2h.018v.022l-.018.023v.022l-.086.13h0l-.044.041-.108.176h-.02v.021h-.044l-.216-.021h-.041l-.15-.022h-.044l-.018-.023h0l-.089-.191-.087-.2-.017-.022v-.045h.017l.087-.15h0l.023-.021.128-.176h0l.022-.021v-.024h.042Zm.193.109h0l-.193-.023-.108.173h0l-.128.177.084.173.089.2.216.019h.191l.107-.153h0l.132-.175-.086-.194-.087-.173-.215-.022Zm19.684-7.206a13.91,13.91,0,0,1-1.308.5,2.715,2.715,0,0,1-.71,0c-.664-.09.17-.976,2.018-.5Zm-4.57,1.693.233-.11.153.325-.217.108Zm.558-.261.214-.107.15.323-.215.109Zm.557-.263.215-.107.149.324-.214.108Zm-3.153,4.059a3.788,3.788,0,0,0,.488-.04,1.592,1.592,0,0,0,.154.454,4.017,4.017,0,0,0,.236.412,3.462,3.462,0,0,1-.579.284c-.044,0-.086-.042-.151-.021-.343.108-1.31.542-1.523.434-.064-.154.255-.326.494-.546-.475.111-.775.177-1.2.262.646-.392,1.287-.76,1.932-1.149a.338.338,0,0,1,.152-.091Zm-3.116,1.848c.281-.067.58-.085.881-.151a2.275,2.275,0,0,0,.15.431,1.726,1.726,0,0,0,.214.371,3.154,3.154,0,0,1-.709.369c-.018,0-.044-.044-.064-.044-.235.112-.533.238-.793.347a2.881,2.881,0,0,1-.429.107c-.107.025-.239.025-.283-.04-.017-.13.176-.283.283-.392a2.016,2.016,0,0,0-1.052.09l1.547-.915h0l.04-.043a2.226,2.226,0,0,1,.215-.13Zm3.693-1.908c.172-.025.5.67.385.819l-.02.024a1.492,1.492,0,0,0-.365-.843Zm-2.727,1.736c.11-.045.408.5.366.757a.022.022,0,0,1-.023.022,1.515,1.515,0,0,0-.343-.779Zm-7.445,1.8c3.736-1.891,6.932-3.583,10.862-5.6.537-.3,5.083-2.693,5.277-2.693-.236.674-5.088,3.02-6.011,3.539h-.044c-1.888,1-3.795,1.978-5.686,2.976-1.564.826-2.62,1.345-3.929,1.953-.17-.065-.32-.111-.469-.173Zm15.2,68.4Zm35.566-7.577a32.76,32.76,0,0,1-14.337,8.509,50.9,50.9,0,0,0,6.633-13.349h11.651a31.8,31.8,0,0,1-3.947,4.841Zm-29.513,9.164h0a48.228,48.228,0,0,1-7.555-14h12.555v14.588a34.4,34.4,0,0,1-5-.583Zm-26.659-31.435h13.585a60.939,60.939,0,0,0,2.188,15H696.028a33.627,33.627,0,0,1-4.165-15Zm34.148-19.972h0V533.425a31.322,31.322,0,0,1,4.057.413,48.466,48.466,0,0,1,7.684,14.131Zm12.536,2.432h0a57.645,57.645,0,0,1,2.317,15.022H726.011V550.4Zm-15.026-2.432H710.966a48.128,48.128,0,0,1,7.555-13.959,29.579,29.579,0,0,1,5-.585Zm0,2.432h0v15.022H707.875a56.884,56.884,0,0,1,2.3-15.022Zm-18.073,15.022H691.863a33.487,33.487,0,0,1,4.184-15.022h11.614a59.967,59.967,0,0,0-2.213,15.022Zm2.426,2.518h15.647v15H710.15a57.487,57.487,0,0,1-2.275-15Zm18.137,17.431h11.741a48.162,48.162,0,0,1-7.684,14.175c-1.329.2-2.683.347-4.057.412Zm0-2.432h0v-15h14.853a58.266,58.266,0,0,1-2.3,15Zm17.259-15h14.379a32.96,32.96,0,0,1-4.272,15.155v-.156h-12.3a58.758,58.758,0,0,0,2.191-15Zm0-2.518h0a58.007,58.007,0,0,0-2.213-15.022h12.409a33.227,33.227,0,0,1,4.183,15.022Zm8.694-17.454H740.306A51.448,51.448,0,0,0,733.7,534.64a32.573,32.573,0,0,1,18.266,13.329ZM701.5,543.128h0a32.624,32.624,0,0,1,13.328-8.184,51.8,51.8,0,0,0-6.416,13.024H697.527a34.5,34.5,0,0,1,3.973-4.841Zm-3.992,42.244h10.881a52.894,52.894,0,0,0,6.439,13.069,32.718,32.718,0,0,1-13.328-8.228,31.813,31.813,0,0,1-3.992-4.841Z" transform="translate(-306.069 1807.3)" fill="#fff" fill-rule="evenodd"/>
    <g id="Ellipse_126" data-name="Ellipse 126" transform="translate(340 2297)" fill="none" stroke="#fff" stroke-width="3">
      <circle cx="75" cy="75" r="75" stroke="none"/>
      <circle cx="75" cy="75" r="73.5" fill="none"/>
    </g>
  </g>
</svg>
