<svg xmlns="http://www.w3.org/2000/svg" width="100" height="90" viewBox="0 0 100 90">
  <g id="ticket" transform="translate(-1 -4)">
    <path id="Path_1846" data-name="Path 1846" d="M8.724,28.255l4.882,3.255a1.627,1.627,0,0,0,1.71.059L38.1,18.549a1.627,1.627,0,0,0,.82-1.413V12.255a1.627,1.627,0,0,0-.9-1.456L34.765,9.171a1.627,1.627,0,0,0-1.455,0l-5.971,2.986L14.9,9.049a1.627,1.627,0,0,0-2.021,1.579V15.51a1.627,1.627,0,0,0,.724,1.354l2.856,1.9-2.187,1.465-4.129-1.375A1.627,1.627,0,0,0,8,20.392V26.9a1.627,1.627,0,0,0,.724,1.354Zm2.531-5.606,2.74.915a1.627,1.627,0,0,0,1.417-.19l4.882-3.255a1.627,1.627,0,0,0,0-2.708l-4.158-2.771V12.712l11,2.749a1.627,1.627,0,0,0,1.121-.122l5.782-2.892,1.627.814V16.19L14.574,28.232l-3.32-2.2Z" transform="translate(4.391 3.136)" fill="#eb7e2d"/>
    <path id="Path_1847" data-name="Path 1847" d="M42.509,28.019h9.764V44.292a1.627,1.627,0,0,0,2.778,1.151l3.286-3.286L62.208,49.9a1.627,1.627,0,0,0,2.184.729L70.9,47.376a1.627,1.627,0,0,0,.729-2.184l-3.976-7.95L72.2,36.1a1.627,1.627,0,0,0,.488-2.952L64.6,28.019h2.316a6.509,6.509,0,1,0,0-13.019H42.509a6.509,6.509,0,1,0,0,13.019ZM64.9,34.577a1.627,1.627,0,0,0-1.063,2.306l4.155,8.309-3.6,1.8-4.145-8.308a1.627,1.627,0,0,0-1.2-.879,1.577,1.577,0,0,0-.269-.021,1.627,1.627,0,0,0-1.15.477l-2.1,2.1V26.1l12.2,7.766ZM42.509,18.255h24.41a3.255,3.255,0,0,1,0,6.509h-7.43l-4.719-3a1.627,1.627,0,0,0-2.5,1.373v1.627H42.509a3.255,3.255,0,1,1,0-6.509Z" transform="translate(21.062 6.535)" fill="#eb7e2d"/>
    <path id="Path_1848" data-name="Path 1848" d="M94.548,4H7.452A6.44,6.44,0,0,0,1,10.429V69.893a6.44,6.44,0,0,0,6.452,6.429H39.676c-.229,6.347-1.774,14.464-4.8,14.464a1.607,1.607,0,1,0,0,3.214H67.129a1.607,1.607,0,1,0,0-3.214c-3.032,0-4.576-8.118-4.8-14.464H94.548A6.44,6.44,0,0,0,101,69.893V10.429A6.44,6.44,0,0,0,94.548,4ZM7.452,7.214h87.1a3.22,3.22,0,0,1,3.226,3.214V65.071H4.226V10.429A3.22,3.22,0,0,1,7.452,7.214ZM62.2,90.786H39.8c2.46-4.074,3-10.975,3.108-14.464H59.092C59.2,79.811,59.74,86.712,62.2,90.786ZM94.548,73.107H7.452a3.22,3.22,0,0,1-3.226-3.214V68.286H97.774v1.607A3.22,3.22,0,0,1,94.548,73.107Z" transform="translate(0)" fill="#eb7e2d"/>
    <path id="Path_1849" data-name="Path 1849" d="M36,10H73.429v3.255H36Z" transform="translate(21.062 3.764)" fill="#eb7e2d"/>
    <path id="Path_1850" data-name="Path 1850" d="M6,25H45.056v3.255H6Z" transform="translate(3.137 12.734)" fill="#eb7e2d"/>
    <path id="Path_1851" data-name="Path 1851" d="M6,29H45.056v3.255H6Z" transform="translate(3.137 15.16)" fill="#eb7e2d"/>
    <path id="Path_1852" data-name="Path 1852" d="M6,37H45.056v3.255H6Z" transform="translate(3.137 20.011)" fill="#eb7e2d"/>
    <path id="Path_1853" data-name="Path 1853" d="M6,33H45.056v3.255H6Z" transform="translate(3.137 17.585)" fill="#eb7e2d"/>
    <path id="Path_1854" data-name="Path 1854" d="M32,8h3.255V58.447H32Z" transform="translate(18.985 2.509)" fill="#eb7e2d"/>
  </g>
</svg>
