<svg xmlns="http://www.w3.org/2000/svg" width="53.182" height="40.773" viewBox="0 0 53.182 40.773">
  <g id="Tracking" opacity="0.78">
    <path id="Path_1518" data-name="Path 1518" d="M54.922,32.782l-11-11A2.64,2.64,0,0,0,42.038,21H26.818v1.773H31.25v13.3h1.773v-13.3h9.015a.886.886,0,0,1,.628.26l1.513,1.513H40.114a1.773,1.773,0,0,0-1.773,1.773V34.3a1.773,1.773,0,0,0,1.773,1.773h13.3v7.091a.886.886,0,0,1-.886.886H50.679a6.2,6.2,0,0,0-12.267,0H25.861a6.2,6.2,0,0,0-12.267,0H11.75a.886.886,0,0,1-.886-.886V35.182H9.091v7.977a2.659,2.659,0,0,0,2.659,2.659h1.844a6.185,6.185,0,0,0,1.8,3.545H2v1.773H44.545a6.21,6.21,0,0,0,6.134-5.318h1.844a2.659,2.659,0,0,0,2.659-2.659v-9.75a.886.886,0,0,0-.26-.627ZM15.3,44.932a4.432,4.432,0,1,1,4.432,4.432A4.432,4.432,0,0,1,15.3,44.932Zm8.765,4.432a6.185,6.185,0,0,0,1.8-3.545H38.412a6.185,6.185,0,0,0,1.8,3.545Zm20.485,0a4.432,4.432,0,1,1,4.432-4.432,4.432,4.432,0,0,1-4.432,4.432ZM40.114,34.3V26.318h5.838l7.458,7.458V34.3Z" transform="translate(-2 -10.364)"/>
    <rect id="Rectangle_360" data-name="Rectangle 360" width="1" height="1" transform="translate(17.114 34)"/>
    <rect id="Rectangle_361" data-name="Rectangle 361" width="1" height="1" transform="translate(42.114 34)"/>
    <rect id="Rectangle_362" data-name="Rectangle 362" width="4" height="2" transform="translate(0.114 31)"/>
    <rect id="Rectangle_363" data-name="Rectangle 363" width="2" height="2" transform="translate(2.114 27)"/>
    <rect id="Rectangle_364" data-name="Rectangle 364" width="1" height="2" transform="translate(3.114 24)"/>
    <path id="Path_1519" data-name="Path 1519" d="M13.523,32.045A11.523,11.523,0,1,0,2,20.523,11.523,11.523,0,0,0,13.523,32.045Zm0-21.273a9.75,9.75,0,1,1-9.75,9.75,9.75,9.75,0,0,1,9.75-9.75Z" transform="translate(-2 -9)"/>
    <path id="Path_1520" data-name="Path 1520" d="M14.2,28.955a.886.886,0,0,0,.627-.26c.571-.571,5.578-5.688,5.578-9.49A6.2,6.2,0,0,0,8,19.2c0,3.8,5.007,8.919,5.578,9.49A.886.886,0,0,0,14.2,28.955Zm0-14.182A4.437,4.437,0,0,1,18.636,19.2c0,2.274-2.789,5.789-4.432,7.579-1.642-1.79-4.432-5.3-4.432-7.579A4.437,4.437,0,0,1,14.2,14.773Z" transform="translate(-2.682 -9.455)"/>
    <path id="Path_1521" data-name="Path 1521" d="M17.318,19.659a2.659,2.659,0,1,0-2.659,2.659A2.659,2.659,0,0,0,17.318,19.659Zm-3.545,0a.886.886,0,1,1,.886.886A.886.886,0,0,1,13.773,19.659Z" transform="translate(-3.136 -9.909)"/>
    <rect id="Rectangle_365" data-name="Rectangle 365" width="3" height="2" transform="translate(34.114 27)"/>
  </g>
</svg>
