<svg id="user_2_" data-name="user (2)" xmlns="http://www.w3.org/2000/svg" width="90" height="90" viewBox="0 0 90 90">
  <g id="Group_2241" data-name="Group 2241">
    <path id="Path_2099" data-name="Path 2099" d="M45,0A44.976,44.976,0,0,0,10.311,73.632c.016.023.018.051.036.072A44.988,44.988,0,0,0,27.339,86.383c.075.031.148.066.223.1.526.222,1.059.427,1.593.629.21.08.42.16.633.237q.691.248,1.391.471c.3.1.6.191.9.281q.619.184,1.243.354c.366.1.735.191,1.1.279s.749.18,1.125.26c.42.09.845.17,1.271.247.342.063.682.129,1.028.185.472.076.948.136,1.425.2.308.039.613.084.923.117.54.057,1.084.1,1.63.135.254.018.506.045.761.059Q43.781,90,45,90c.811,0,1.617-.024,2.416-.066.255-.014.507-.04.761-.059.546-.039,1.09-.078,1.631-.135.309-.033.615-.078.923-.117.477-.061.952-.121,1.425-.2.344-.055.686-.122,1.027-.185.425-.078.849-.158,1.271-.247.376-.081.75-.17,1.125-.26s.738-.181,1.1-.279c.417-.111.831-.231,1.243-.354.3-.09.6-.184.9-.28q.7-.225,1.39-.471c.211-.076.421-.158.633-.237.535-.2,1.066-.408,1.593-.628.075-.032.149-.066.224-.1a45,45,0,0,0,16.992-12.68c.018-.021.019-.051.036-.072A44.981,44.981,0,0,0,45,0ZM63.235,82.83l-.066.033c-.535.258-1.08.5-1.629.738l-.372.159q-.72.3-1.455.575c-.2.076-.408.151-.613.223-.434.155-.869.3-1.308.444-.273.087-.548.17-.822.251-.39.117-.782.229-1.178.335-.333.089-.669.169-1.005.249-.352.084-.7.169-1.059.244-.388.082-.78.153-1.17.224-.316.058-.631.12-.951.171-.439.069-.883.124-1.326.18-.28.036-.559.078-.843.108-.505.054-1.015.089-1.524.124-.226.015-.451.041-.681.052Q46.12,87,45,87t-2.232-.06c-.228-.012-.453-.036-.681-.052-.51-.034-1.019-.071-1.524-.124-.284-.03-.562-.072-.843-.108-.442-.055-.886-.111-1.326-.18-.319-.051-.635-.113-.951-.171-.391-.071-.783-.143-1.17-.224-.355-.075-.708-.16-1.059-.244s-.672-.16-1-.249c-.394-.105-.787-.219-1.178-.335-.274-.081-.549-.163-.822-.251q-.659-.211-1.308-.444c-.205-.073-.41-.148-.614-.223q-.734-.275-1.455-.575c-.124-.051-.246-.1-.37-.158-.549-.235-1.093-.48-1.63-.738l-.066-.033A42.2,42.2,0,0,1,13.158,72.34,33.108,33.108,0,0,1,34.825,49.632c.208.128.426.242.64.362.126.071.25.146.378.213.447.237.9.459,1.363.659.356.156.723.288,1.089.423.072.025.144.054.216.08a19.144,19.144,0,0,0,12.974,0c.072-.026.144-.054.216-.08.366-.135.733-.267,1.089-.423.464-.2.917-.421,1.364-.659.127-.069.252-.143.378-.213.215-.12.434-.234.644-.363A33.116,33.116,0,0,1,76.844,72.339,42.246,42.246,0,0,1,63.235,82.83ZM28.5,33A16.5,16.5,0,1,1,53.976,46.825a15.888,15.888,0,0,1-1.837,1.027c-.075.036-.148.074-.223.108a16.878,16.878,0,0,1-13.83,0c-.075-.035-.15-.072-.223-.108a15.766,15.766,0,0,1-1.838-1.027A16.489,16.489,0,0,1,28.5,33ZM79.093,69.484a36.142,36.142,0,0,0-21.07-22.011,19.5,19.5,0,1,0-26.044,0A36.146,36.146,0,0,0,10.908,69.484,41.989,41.989,0,1,1,87,45,41.762,41.762,0,0,1,79.093,69.484Z" fill="#eb7e2d"/>
  </g>
</svg>
