<svg xmlns="http://www.w3.org/2000/svg" width="43.131" height="43.131" viewBox="0 0 43.131 43.131">
  <g id="visitor" transform="translate(0 -0.002)">
    <g id="Group_1979" data-name="Group 1979" transform="translate(0 24.443)">
      <g id="Group_1978" data-name="Group 1978" transform="translate(0)">
        <path id="Path_1599" data-name="Path 1599" d="M11.242,281.984a3.786,3.786,0,0,0-1.635-.605,4.99,4.99,0,0,0,1.895-3.63C11.5,273,8.765,272,6.47,272s-5.032,1-5.032,5.751a4.99,4.99,0,0,0,1.9,3.63A3.8,3.8,0,0,0,0,285.153v4.816a.719.719,0,0,0,.719.719h11.5a.719.719,0,0,0,.719-.719v-4.816A3.8,3.8,0,0,0,11.242,281.984Zm-8.329-5c.195-2.41,1.328-3.553,3.557-3.553a3.142,3.142,0,0,1,3.484,2.977l-2.4-1.438a.719.719,0,0,0-1.052.389C6.143,276.456,4.179,276.868,2.913,276.988Zm.063,1.442c1.231-.1,3.45-.474,4.486-1.837l2.569,1.542a4.449,4.449,0,0,1-3.56,3.208A4.529,4.529,0,0,1,2.975,278.43Zm4.088,7.052-.594.6-.594-.595L6.47,284ZM11.5,289.25H1.438v-4.1a2.372,2.372,0,0,1,2.372-2.372h1.6L4.364,285.39a.719.719,0,0,0,.16.775L5.961,287.6a.719.719,0,0,0,1.016,0l1.438-1.438a.719.719,0,0,0,.16-.775l-1.044-2.609h1.6a2.372,2.372,0,0,1,2.372,2.372Z" transform="translate(0 -271.998)"/>
      </g>
    </g>
    <g id="Group_1981" data-name="Group 1981" transform="translate(15.096 24.443)">
      <g id="Group_1980" data-name="Group 1980">
        <path id="Path_1600" data-name="Path 1600" d="M179.242,281.984a3.786,3.786,0,0,0-1.635-.605,4.99,4.99,0,0,0,1.895-3.63c0-4.753-2.737-5.751-5.032-5.751s-5.032,1-5.032,5.751a4.99,4.99,0,0,0,1.9,3.63A3.8,3.8,0,0,0,168,285.153v4.816a.719.719,0,0,0,.719.719h11.5a.719.719,0,0,0,.719-.719v-4.816A3.8,3.8,0,0,0,179.242,281.984Zm-8.329-5c.195-2.41,1.328-3.553,3.557-3.553a3.142,3.142,0,0,1,3.484,2.977l-2.4-1.438a.719.719,0,0,0-1.052.389C174.143,276.456,172.179,276.868,170.913,276.988Zm.063,1.442c1.231-.1,3.451-.474,4.486-1.837l2.569,1.542a4.449,4.449,0,0,1-3.56,3.208A4.529,4.529,0,0,1,170.975,278.43Zm4.088,7.052-.594.6-.594-.595L174.47,284Zm4.438,3.768H169.438v-4.1a2.372,2.372,0,0,1,2.372-2.372h1.6l-1.044,2.609a.719.719,0,0,0,.16.775l1.438,1.438a.719.719,0,0,0,1.016,0l1.438-1.438a.719.719,0,0,0,.16-.775l-1.042-2.609h1.6a2.372,2.372,0,0,1,2.372,2.372Z" transform="translate(-168 -271.998)"/>
      </g>
    </g>
    <g id="Group_1983" data-name="Group 1983" transform="translate(30.192 24.443)">
      <g id="Group_1982" data-name="Group 1982">
        <path id="Path_1601" data-name="Path 1601" d="M347.242,281.984a3.786,3.786,0,0,0-1.635-.605,4.99,4.99,0,0,0,1.895-3.63c0-4.753-2.737-5.751-5.032-5.751s-5.032,1-5.032,5.751a4.99,4.99,0,0,0,1.9,3.63A3.8,3.8,0,0,0,336,285.153v4.816a.719.719,0,0,0,.719.719h11.5a.719.719,0,0,0,.719-.719v-4.816A3.8,3.8,0,0,0,347.242,281.984Zm-8.329-5c.195-2.41,1.328-3.553,3.557-3.553a3.142,3.142,0,0,1,3.484,2.977l-2.4-1.438a.719.719,0,0,0-1.052.389C342.143,276.456,340.179,276.868,338.913,276.988Zm.063,1.442c1.231-.1,3.45-.474,4.486-1.837l2.569,1.542a4.449,4.449,0,0,1-3.56,3.208A4.529,4.529,0,0,1,338.975,278.43Zm4.088,7.052-.594.6-.594-.595L342.47,284Zm4.438,3.768H337.438v-4.1a2.372,2.372,0,0,1,2.372-2.372h1.6l-1.044,2.609a.719.719,0,0,0,.16.775l1.438,1.438a.719.719,0,0,0,1.016,0l1.438-1.438a.719.719,0,0,0,.16-.775l-1.042-2.609h1.6a2.372,2.372,0,0,1,2.372,2.372Z" transform="translate(-336 -271.998)"/>
      </g>
    </g>
    <g id="Group_1985" data-name="Group 1985" transform="translate(10.064 5.75)">
      <g id="Group_1984" data-name="Group 1984">
        <path id="Path_1602" data-name="Path 1602" d="M135,79.784V70.439a.719.719,0,0,0-.719-.719h-6.47V67.564a.719.719,0,0,0-.719-.719h-4.367a5.738,5.738,0,0,0-5.154-2.875A5.905,5.905,0,0,0,112,69.932a9.848,9.848,0,0,0,1.543,5.3l2.9,4.555h-.847v1.438h20.128V79.784Zm-15.1,0h-.847l.847-1.331Zm-2.157-.62-2.995-4.707a8.41,8.41,0,0,1-1.318-4.526,4.457,4.457,0,0,1,4.18-4.524h.133a4.313,4.313,0,0,1,4.313,4.313v.211a8.41,8.41,0,0,1-1.318,4.529Zm8.626.62h-5.032V76.194l.614-.964a9.848,9.848,0,0,0,1.543-5.3V69.72a5.78,5.78,0,0,0-.187-1.438h3.062Zm5.032,0h-1.438V77.628h1.438Zm2.157-7.907h-1.438v1.438h1.438v.719h-1.438v1.438h1.438v4.313h-.719V76.909a.719.719,0,0,0-.719-.719h-2.875a.719.719,0,0,0-.719.719v2.875h-.719V75.471h1.438V74.033h-1.438v-.719h1.438V71.877h-1.438v-.719h5.751Z" transform="translate(-111.996 -63.967)"/>
      </g>
    </g>
    <g id="Group_1987" data-name="Group 1987" transform="translate(22.263 10.925)">
      <g id="Group_1986" data-name="Group 1986" transform="translate(0 0)">
        <rect id="Rectangle_381" data-name="Rectangle 381" width="2" height="1" transform="translate(-0.188 0.154)"/>
      </g>
    </g>
    <g id="Group_1989" data-name="Group 1989" transform="translate(28.161 13.647)">
      <g id="Group_1988" data-name="Group 1988" transform="translate(0 0)">
        <rect id="Rectangle_382" data-name="Rectangle 382" width="1" height="1" transform="translate(-0.085 0.433)"/>
      </g>
    </g>
    <g id="Group_1991" data-name="Group 1991" transform="translate(28.161 15.915)">
      <g id="Group_1990" data-name="Group 1990" transform="translate(0 0)">
        <rect id="Rectangle_383" data-name="Rectangle 383" width="1" height="1" transform="translate(-0.085 0.165)"/>
      </g>
    </g>
    <g id="Group_1993" data-name="Group 1993" transform="translate(22.263 12.74)">
      <g id="Group_1992" data-name="Group 1992" transform="translate(0 0)">
        <rect id="Rectangle_384" data-name="Rectangle 384" width="2" height="1" transform="translate(-0.188 0.34)"/>
      </g>
    </g>
    <g id="Group_1995" data-name="Group 1995" transform="translate(22.263 15.008)">
      <g id="Group_1994" data-name="Group 1994" transform="translate(0 0)">
        <rect id="Rectangle_385" data-name="Rectangle 385" width="2" height="1" transform="translate(-0.188 0.072)"/>
      </g>
    </g>
    <g id="Group_1997" data-name="Group 1997" transform="translate(19.995 17.276)">
      <g id="Group_1996" data-name="Group 1996" transform="translate(0 0)">
        <rect id="Rectangle_386" data-name="Rectangle 386" width="1" height="2" transform="translate(0.081 -0.195)"/>
      </g>
    </g>
    <g id="Group_1999" data-name="Group 1999" transform="translate(22.263 17.276)">
      <g id="Group_1998" data-name="Group 1998" transform="translate(0 0)">
        <rect id="Rectangle_387" data-name="Rectangle 387" width="2" height="2" transform="translate(-0.188 -0.195)"/>
      </g>
    </g>
    <g id="Group_2001" data-name="Group 2001" transform="translate(19.995 19.544)">
      <g id="Group_2000" data-name="Group 2000" transform="translate(0 0)">
        <rect id="Rectangle_388" data-name="Rectangle 388" width="1" height="2" transform="translate(0.081 -0.465)"/>
      </g>
    </g>
    <g id="Group_2003" data-name="Group 2003" transform="translate(22.263 19.544)">
      <g id="Group_2002" data-name="Group 2002" transform="translate(0 0)">
        <rect id="Rectangle_389" data-name="Rectangle 389" width="2" height="2" transform="translate(-0.188 -0.465)"/>
      </g>
    </g>
    <g id="Group_2005" data-name="Group 2005" transform="translate(38.482 15)">
      <g id="Group_2004" data-name="Group 2004">
        <path id="Path_1603" data-name="Path 1603" d="M429.666,166.918l-1.41.284c.088.439.16.889.216,1.335l1.425-.17C429.839,167.883,429.761,167.4,429.666,166.918Z" transform="translate(-428.256 -166.918)"/>
      </g>
    </g>
    <g id="Group_2007" data-name="Group 2007" transform="translate(3.005 15.035)">
      <g id="Group_2006" data-name="Group 2006">
        <path id="Path_1604" data-name="Path 1604" d="M33.67,167.3c-.1.48-.173.967-.23,1.447l1.428.168c.052-.443.124-.893.211-1.337Z" transform="translate(-33.44 -167.302)"/>
      </g>
    </g>
    <g id="Group_2009" data-name="Group 2009" transform="translate(36.605 9.526)">
      <g id="Group_2008" data-name="Group 2008">
        <path id="Path_1605" data-name="Path 1605" d="M408.628,105.99l-1.252.706c.221.39.431.8.618,1.2l1.3-.607C409.092,106.851,408.866,106.413,408.628,105.99Z" transform="translate(-407.376 -105.99)"/>
      </g>
    </g>
    <g id="Group_2011" data-name="Group 2011" transform="translate(35.096 7.095)">
      <g id="Group_2010" data-name="Group 2010">
        <path id="Path_1606" data-name="Path 1606" d="M391.7,78.934l-1.129.893c.278.35.547.719.8,1.093l1.192-.8C392.294,79.712,392,79.314,391.7,78.934Z" transform="translate(-390.576 -78.934)"/>
      </g>
    </g>
    <g id="Group_2013" data-name="Group 2013" transform="translate(6.028 7.118)">
      <g id="Group_2012" data-name="Group 2012">
        <path id="Path_1607" data-name="Path 1607" d="M67.944,79.2c-.3.381-.593.78-.864,1.184l1.195.8c.249-.373.518-.741.8-1.094Z" transform="translate(-67.08 -79.198)"/>
      </g>
    </g>
    <g id="Group_2015" data-name="Group 2015" transform="translate(33.257 4.948)">
      <g id="Group_2014" data-name="Group 2014">
        <path id="Path_1608" data-name="Path 1608" d="M371.087,55.046l-.975,1.057c.333.308.656.629.958.955l1.055-.977C371.8,55.727,371.448,55.379,371.087,55.046Z" transform="translate(-370.112 -55.046)"/>
      </g>
    </g>
    <g id="Group_2017" data-name="Group 2017" transform="translate(4.592 9.549)">
      <g id="Group_2016" data-name="Group 2016">
        <path id="Path_1609" data-name="Path 1609" d="M51.772,106.254c-.237.422-.462.862-.668,1.307l1.3.6c.19-.411.4-.817.616-1.2Z" transform="translate(-51.104 -106.254)"/>
      </g>
    </g>
    <g id="Group_2019" data-name="Group 2019" transform="translate(3.576 12.213)">
      <g id="Group_2018" data-name="Group 2018">
        <path id="Path_1610" data-name="Path 1610" d="M40.254,135.894c-.17.46-.323.929-.454,1.4l1.383.39c.121-.431.262-.863.42-1.288Z" transform="translate(-39.8 -135.894)"/>
      </g>
    </g>
    <g id="Group_2021" data-name="Group 2021" transform="translate(7.843 4.965)">
      <g id="Group_2020" data-name="Group 2020">
        <path id="Path_1611" data-name="Path 1611" d="M88.325,55.238c-.359.33-.706.679-1.037,1.037l1.056.975c.3-.329.627-.65.956-.956Z" transform="translate(-87.288 -55.238)"/>
      </g>
    </g>
    <g id="Group_2023" data-name="Group 2023" transform="translate(37.744 12.183)">
      <g id="Group_2022" data-name="Group 2022">
        <path id="Path_1612" data-name="Path 1612" d="M421.4,135.566l-1.348.5c.157.423.3.856.421,1.287l1.383-.393C421.719,136.493,421.565,136.025,421.4,135.566Z" transform="translate(-420.048 -135.566)"/>
      </g>
    </g>
    <g id="Group_2025" data-name="Group 2025" transform="translate(15.088 0.702)">
      <g id="Group_2024" data-name="Group 2024">
        <path id="Path_1613" data-name="Path 1613" d="M169.305,7.8c-.472.134-.941.288-1.393.454l.5,1.348c.418-.154.851-.295,1.287-.418Z" transform="translate(-167.912 -7.798)"/>
      </g>
    </g>
    <g id="Group_2027" data-name="Group 2027" transform="translate(17.909 0.132)">
      <g id="Group_2026" data-name="Group 2026">
        <path id="Path_1614" data-name="Path 1614" d="M200.752,1.446c-.48.057-.968.134-1.448.228l.278,1.411c.444-.088.894-.16,1.338-.211Z" transform="translate(-199.304 -1.446)"/>
      </g>
    </g>
    <g id="Group_2029" data-name="Group 2029" transform="translate(20.818 0.002)">
      <g id="Group_2028" data-name="Group 2028" transform="translate(0 0)">
        <path id="Path_1615" data-name="Path 1615" d="M231.68.016l.055,1.438c.449-.016.906-.017,1.354,0l.057-1.438C232.66,0,232.167,0,231.68.016Z" transform="translate(-231.68 -0.002)"/>
      </g>
    </g>
    <g id="Group_2031" data-name="Group 2031" transform="translate(12.428 1.717)">
      <g id="Group_2030" data-name="Group 2030">
        <path id="Path_1616" data-name="Path 1616" d="M139.617,19.086c-.441.2-.881.431-1.305.667l.7,1.254c.392-.221.8-.431,1.2-.616Z" transform="translate(-138.312 -19.086)"/>
      </g>
    </g>
    <g id="Group_2033" data-name="Group 2033" transform="translate(23.578 0.127)">
      <g id="Group_2032" data-name="Group 2032">
        <path id="Path_1617" data-name="Path 1617" d="M262.565,1.4,262.4,2.826c.442.051.892.121,1.338.208l.275-1.411C263.531,1.529,263.047,1.453,262.565,1.4Z" transform="translate(-262.4 -1.398)"/>
      </g>
    </g>
    <g id="Group_2035" data-name="Group 2035" transform="translate(31.131 3.134)">
      <g id="Group_2034" data-name="Group 2034">
        <path id="Path_1618" data-name="Path 1618" d="M347.245,34.862l-.8,1.2c.371.247.739.515,1.1.8l.889-1.13C348.046,35.42,347.647,35.129,347.245,34.862Z" transform="translate(-346.448 -34.862)"/>
      </g>
    </g>
    <g id="Group_2037" data-name="Group 2037" transform="translate(26.232 0.693)">
      <g id="Group_2036" data-name="Group 2036">
        <path id="Path_1619" data-name="Path 1619" d="M292.314,7.694l-.386,1.385c.431.121.863.26,1.287.415l.5-1.349C293.253,7.976,292.783,7.825,292.314,7.694Z" transform="translate(-291.928 -7.694)"/>
      </g>
    </g>
    <g id="Group_2039" data-name="Group 2039" transform="translate(9.995 3.152)">
      <g id="Group_2038" data-name="Group 2038">
        <path id="Path_1620" data-name="Path 1620" d="M112.416,35.054c-.407.274-.806.564-1.184.863l.89,1.129c.349-.276.719-.544,1.1-.8Z" transform="translate(-111.232 -35.054)"/>
      </g>
    </g>
    <g id="Group_2041" data-name="Group 2041" transform="translate(28.768 1.704)">
      <g id="Group_2040" data-name="Group 2040">
        <path id="Path_1621" data-name="Path 1621" d="M320.761,18.942l-.6,1.305c.406.188.813.395,1.208.614l.7-1.255C321.642,19.369,321.2,19.145,320.761,18.942Z" transform="translate(-320.16 -18.942)"/>
      </g>
    </g>
    <g id="Group_2043" data-name="Group 2043" transform="translate(12.939 8.628)">
      <g id="Group_2042" data-name="Group 2042">
        <path id="Path_1622" data-name="Path 1622" d="M146.875,96a2.875,2.875,0,1,0,2.875,2.875A2.875,2.875,0,0,0,146.875,96Zm0,4.313a1.438,1.438,0,1,1,1.438-1.438A1.438,1.438,0,0,1,146.875,100.311Z" transform="translate(-144 -95.998)"/>
      </g>
    </g>
  </g>
</svg>
