<svg xmlns="http://www.w3.org/2000/svg" width="32.561" height="31" viewBox="0 0 32.561 31">
  <g id="bill" transform="translate(0 -0.39)">
    <g id="Group_2219" data-name="Group 2219">
      <path id="Path_1809" data-name="Path 1809" d="M25.071.39a7.569,7.569,0,0,0-7.052,4.953H4.926a.552.552,0,0,0-.528.551L4.273,24.4H.541A.519.519,0,0,0,0,24.9v2.348a4.144,4.144,0,0,0,3.957,4.127v.012H20.244v-.015c.132,0,.186.015.27.015h.011a4.144,4.144,0,0,0,4.137-4.144V15.373c.132.007.271.011.408.011a7.5,7.5,0,0,0,0-14.994ZM4.157,30.336h0a3.1,3.1,0,0,1-3.1-3.089V25.456h15.3v1.783a4.138,4.138,0,0,0,1.221,2.932c.055.055.124.1.182.164Zm19.45-3.089a3.089,3.089,0,0,1-3.083,3.089h-.01a3.111,3.111,0,0,1-3.106-3.1V24.9a.487.487,0,0,0-.5-.5H5.328l.121-18H17.726a7.927,7.927,0,0,0-.145,1.465,7.439,7.439,0,0,0,.637,3.019H13.236a.528.528,0,1,0,0,1.055h5.555a7.445,7.445,0,0,0,4.816,3.3ZM25.071,14.33a6.435,6.435,0,1,1,6.435-6.435A6.434,6.434,0,0,1,25.071,14.33Zm0,0" fill="#41b45a"/>
    </g>
    <path id="Path_1810" data-name="Path 1810" d="M125.45,212.746a1.636,1.636,0,1,0,1.689,1.635A1.664,1.664,0,0,0,125.45,212.746Zm0,2.215a.582.582,0,1,1,.634-.58A.609.609,0,0,1,125.45,214.961Zm0,0" transform="translate(-115.601 -198.352)" fill="#41b45a"/>
    <path id="Path_1811" data-name="Path 1811" d="M192.719,230.032a.527.527,0,0,0,.528.528h7.033a.528.528,0,0,0,0-1.055h-7.033A.527.527,0,0,0,192.719,230.032Zm0,0" transform="translate(-180.011 -214.005)" fill="#41b45a"/>
    <path id="Path_1812" data-name="Path 1812" d="M125.45,143.2a1.636,1.636,0,1,0,1.689,1.635A1.664,1.664,0,0,0,125.45,143.2Zm0,2.215a.582.582,0,1,1,.634-.58.609.609,0,0,1-.634.58Zm0,0" transform="translate(-115.601 -133.395)" fill="#41b45a"/>
    <path id="Path_1813" data-name="Path 1813" d="M125.45,282.281a1.636,1.636,0,1,0,1.689,1.635A1.664,1.664,0,0,0,125.45,282.281Zm0,2.215a.582.582,0,1,1,.634-.58A.609.609,0,0,1,125.45,284.5Zm0,0" transform="translate(-115.601 -263.302)" fill="#41b45a"/>
    <path id="Path_1814" data-name="Path 1814" d="M200.28,299.5h-7.033a.528.528,0,1,0,0,1.055h7.033a.528.528,0,0,0,0-1.055Zm0,0" transform="translate(-180.011 -279.389)" fill="#41b45a"/>
  </g>
</svg>
