<svg xmlns="http://www.w3.org/2000/svg" width="75" height="75" viewBox="0 0 75 75">
  <g id="customer_1_" data-name="customer (1)" transform="translate(0 -0.013)">
    <g id="Group_2226" data-name="Group 2226" transform="translate(0 34.038)">
      <g id="Group_2225" data-name="Group 2225" transform="translate(0)">
        <path id="Path_2097" data-name="Path 2097" d="M72.654,238.428a6.527,6.527,0,0,0-9.073.555l-6.458,7.025a6.614,6.614,0,0,0-6.3-4.7H39.3c-.875,0-1.167-.338-2.686-1.524a15.259,15.259,0,0,0-20.265.049l-4.236,3.779a6.488,6.488,0,0,0-6.042-.077L1.215,246a2.242,2.242,0,0,0-.983,2.988L13.415,275.7a2.186,2.186,0,0,0,2.949,1l4.859-2.463a6.688,6.688,0,0,0,3.641-6.209H50.828a15.385,15.385,0,0,0,12.3-6.234L73.679,247.54A6.723,6.723,0,0,0,72.654,238.428Zm-53.4,31.826-2.893,1.466L5.145,248.984l2.894-1.466a2.183,2.183,0,0,1,2.947,1l9.253,18.753A2.24,2.24,0,0,1,19.256,270.254Zm50.908-25.385L59.616,259.121a10.988,10.988,0,0,1-8.788,4.453H23.33L15.1,246.886l4.158-3.709a10.9,10.9,0,0,1,14.516,0c2.437,2.175,3.953,2.586,5.532,2.586H50.828a2.227,2.227,0,0,1,0,4.453H39.606a2.227,2.227,0,0,0,0,4.453H52.3a6.57,6.57,0,0,0,4.823-2.127L66.8,242.018a2.177,2.177,0,0,1,3.073-.144A2.242,2.242,0,0,1,70.164,244.868Z" transform="translate(0 -235.959)" fill="#eb7e2d"/>
      </g>
    </g>
    <g id="Group_2228" data-name="Group 2228" transform="translate(26.319 0.013)">
      <g id="Group_2227" data-name="Group 2227" transform="translate(0 0)">
        <path id="Path_2098" data-name="Path 2098" d="M200.944,15.207a8.87,8.87,0,0,0,2.464-6.139A9.027,9.027,0,0,0,194.5.013a9.175,9.175,0,0,0-9.055,9.055,8.741,8.741,0,0,0,2.546,6.157,13.583,13.583,0,0,0-7,11.8v2.227a2.227,2.227,0,0,0,2.227,2.227h22.414a2.227,2.227,0,0,0,2.227-2.227V27.028A13.573,13.573,0,0,0,200.944,15.207ZM194.5,4.466a4.59,4.59,0,0,1,4.453,4.6,4.458,4.458,0,0,1-4.453,4.453,4.59,4.59,0,0,1-4.6-4.453A4.723,4.723,0,0,1,194.5,4.466Zm-9.055,22.562a9.175,9.175,0,0,1,9.055-9.055,8.991,8.991,0,0,1,8.906,9.055Z" transform="translate(-180.994 -0.013)" fill="#eb7e2d"/>
      </g>
    </g>
  </g>
</svg>
