<svg xmlns="http://www.w3.org/2000/svg" width="63" height="63" viewBox="0 0 63 63">
  <g id="gift" transform="translate(-0.5 -0.5)">
    <path id="Path_2085" data-name="Path 2085" d="M51,14.5H46.161c3.218-2.323,4.675-5.437,4.675-7.987C50.835,3.52,48.722.5,44,.5,36.227.5,30.49,8.56,28,12.819,25.51,8.56,19.773.5,12,.5,7.618.5,5.165,3.135,5.165,6.513c0,2.868,1.682,5.851,4.674,7.987H5A4.5,4.5,0,0,0,.5,19v2a4.493,4.493,0,0,0,3,4.224V59A4.5,4.5,0,0,0,8,63.5H35a1.5,1.5,0,1,0,0-3H25.5v-35h5V36a1.5,1.5,0,0,0,3,0V25.5h16v4a1.5,1.5,0,1,0,3,0V25.224A4.493,4.493,0,0,0,55.5,21V19A4.5,4.5,0,0,0,51,14.5Zm-7-11c2.474,0,3.835,1.07,3.835,3.013C47.835,9.861,43.723,14.5,36,14.5H30.5C32.663,10.781,37.695,3.5,44,3.5ZM8.165,6.513C8.165,4.57,9.526,3.5,12,3.5c6.305,0,11.337,7.281,13.5,11H20C12.277,14.5,8.165,9.861,8.165,6.513ZM3.5,19A1.5,1.5,0,0,1,5,17.5H22.5v5H5A1.5,1.5,0,0,1,3.5,21Zm19,41.5H8A1.5,1.5,0,0,1,6.5,59V25.5h16Zm3-38v-5h5v5Zm27-1.5A1.5,1.5,0,0,1,51,22.5H33.5v-5H51A1.5,1.5,0,0,1,52.5,19Z" fill="#1e1e2d"/>
    <path id="Path_2086" data-name="Path 2086" d="M45.706,43.028a1.557,1.557,0,0,0,.387,1.506c.125.1.263.194.41.288v-3.13a2.235,2.235,0,0,0-.8,1.336Z" fill="#535aa2"/>
    <path id="Path_2087" data-name="Path 2087" d="M49.5,49.416v4.793a3.1,3.1,0,0,0,1.484-2.14A2.328,2.328,0,0,0,49.5,49.416Z" fill="#535aa2"/>
    <path id="Path_2088" data-name="Path 2088" d="M48,32.5A15.5,15.5,0,1,0,63.5,48,15.5,15.5,0,0,0,48,32.5Zm5.945,20.065A6.1,6.1,0,0,1,49.5,57.418V58.5a1.5,1.5,0,0,1-3,0v-.931a7.255,7.255,0,0,1-3.638-1.363,1.5,1.5,0,1,1,1.643-2.51,4.572,4.572,0,0,0,2,.862V48.213a11.163,11.163,0,0,1-2.261-1.319,4.49,4.49,0,0,1-1.484-4.421A5.027,5.027,0,0,1,46.5,38.441V37.5a1.5,1.5,0,0,1,3,0v.835a6.366,6.366,0,0,1,2.87,1.358,1.5,1.5,0,1,1-2.021,2.218,3.117,3.117,0,0,0-.85-.47V46.2c.266.1.532.2.793.288a5.367,5.367,0,0,1,3.649,6.073Z" fill="#535aa2"/>
  </g>
</svg>
