<svg xmlns="http://www.w3.org/2000/svg" width="72" height="75" viewBox="0 0 72 75">
  <g id="Group_2229" data-name="Group 2229" transform="translate(-442.462 -959.916)">
    <g id="percentage_1_" data-name="percentage (1)" transform="translate(442.462 959.916)">
      <path id="Path_2089" data-name="Path 2089" d="M87,322.987a10.729,10.729,0,0,0-15.26,0l-6.745,6.8h-3.2a11.164,11.164,0,0,0,2.17-6.63,2.257,2.257,0,0,0-2.248-2.266H54.253c-2.439,0-4.782-1.116-7.262-2.3-2.6-1.239-5.291-2.52-8.436-2.731a23.591,23.591,0,0,0-8.2.9,7.312,7.312,0,0,0-5.192,6.341H17.9a2.257,2.257,0,0,0-2.248,2.266v17.777a2.257,2.257,0,0,0,2.248,2.266h45.9a9.85,9.85,0,0,0,7.04-2.94L87,326.192A2.279,2.279,0,0,0,87,322.987Zm-66.846,4.65h4.985v13.245H20.153ZM67.668,339.27a5.4,5.4,0,0,1-3.861,1.612H29.633V323.749a2.76,2.76,0,0,1,1.974-2.631,19.141,19.141,0,0,1,6.649-.733c2.294.154,4.49,1.2,6.814,2.307,2.819,1.343,5.734,2.731,9.182,2.731h4.82a6.6,6.6,0,0,1-5.725,4.347c-.108-.016-11.723-.027-11.723-.027a2.227,2.227,0,0,0-1.435.522A2.269,2.269,0,0,0,41.6,334.3l24.329.021a2.237,2.237,0,0,0,1.589-.664l7.4-7.463a6.268,6.268,0,0,1,7.022-1.309Z" transform="translate(-15.657 -270.414)" fill="#eb7e2d"/>
      <path id="Path_2090" data-name="Path 2090" d="M156.115,47.327a23.663,23.663,0,1,0-23.663-23.663A23.69,23.69,0,0,0,156.115,47.327Zm0-42.794a19.131,19.131,0,1,1-19.131,19.131A19.153,19.153,0,0,1,156.115,4.532Z" transform="translate(-115.392)" fill="#eb7e2d"/>
      <path id="Path_2091" data-name="Path 2091" d="M228.312,99.965a2.913,2.913,0,1,0-2.913-2.913A2.946,2.946,0,0,0,228.312,99.965Z" transform="translate(-193.987 -80.377)" fill="#eb7e2d"/>
      <path id="Path_2092" data-name="Path 2092" d="M314.17,184.851a2.913,2.913,0,1,0,2.913-2.913A2.964,2.964,0,0,0,314.17,184.851Z" transform="translate(-269.465 -155.342)" fill="#eb7e2d"/>
      <path id="Path_2093" data-name="Path 2093" d="M243.666,90.345a2.264,2.264,0,0,0,2.967-1.213l9.93-23.662a2.266,2.266,0,0,0-4.179-1.754l-9.93,23.662A2.266,2.266,0,0,0,243.666,90.345Z" transform="translate(-208.384 -52.91)" fill="#eb7e2d"/>
    </g>
  </g>
</svg>
