<svg id="payment" xmlns="http://www.w3.org/2000/svg" width="75" height="75" viewBox="0 0 75 75">
  <path id="Path_2094" data-name="Path 2094" d="M70.443,272.449a6.592,6.592,0,0,0-7.479,2.3l-8.183,10.782c0-.059,0-.117,0-.176a7.361,7.361,0,0,0-7.324-7.38H32.925a14.844,14.844,0,0,0-16.519-1.9v-.317a2.206,2.206,0,0,0-2.2-2.214H2.2A2.206,2.206,0,0,0,0,275.758v29.519a2.206,2.206,0,0,0,2.2,2.214H14.209a2.206,2.206,0,0,0,2.2-2.214v-2.214H52.422a15.29,15.29,0,0,0,12.938-7.117l8.575-13.44A6.782,6.782,0,0,0,75,278.851,6.667,6.667,0,0,0,70.443,272.449ZM12.012,303.063H4.395V277.972h7.617Zm58.226-22.952-8.575,13.44a10.921,10.921,0,0,1-9.241,5.084H16.406v-17.31l.735-.529a10.472,10.472,0,0,1,13.416.985,2.188,2.188,0,0,0,1.523.618H47.461a2.952,2.952,0,0,1,0,5.9H31.787a2.214,2.214,0,0,0,0,4.428H49.417a11.022,11.022,0,0,0,8.727-4.345l8.311-10.951a2.238,2.238,0,0,1,2.579-.792,2.262,2.262,0,0,1,1.571,2.208A2.338,2.338,0,0,1,70.238,280.111Z" transform="translate(0 -232.491)" fill="#eb7e2d"/>
  <path id="Path_2095" data-name="Path 2095" d="M258.2,64.883a7.147,7.147,0,0,0,3.58,1.341v.915a1.476,1.476,0,1,0,2.952,0V66.082A6,6,0,0,0,269.1,61.3a5.282,5.282,0,0,0-3.591-5.976c-.257-.091-.519-.185-.781-.283V50.272a2.028,2.028,0,0,1,.719.426,1.476,1.476,0,0,0,2.217-1.949,5.125,5.125,0,0,0-2.936-1.517v-.757a1.476,1.476,0,1,0-2.952,0v.919c-.091.024-.183.05-.275.077a4.972,4.972,0,0,0-3.41,3.9,4.417,4.417,0,0,0,1.46,4.35,10.893,10.893,0,0,0,2.225,1.3v6.233a4.469,4.469,0,0,1-1.964-.841,1.476,1.476,0,1,0-1.616,2.47Zm6.532-6.7a2.284,2.284,0,0,1,1.461,2.624,3.05,3.05,0,0,1-1.461,2.116ZM261.373,53.4a1.529,1.529,0,0,1-.38-1.481,2.2,2.2,0,0,1,.784-1.322v3.087C261.631,53.588,261.5,53.493,261.373,53.4Z" transform="translate(-219.857 -38.358)" fill="#eb7e2d"/>
  <path id="Path_2096" data-name="Path 2096" d="M190.449,36.9A18.449,18.449,0,1,0,172,18.449,18.47,18.47,0,0,0,190.449,36.9Zm0-32.471a14.022,14.022,0,1,1-14.022,14.022A14.038,14.038,0,0,1,190.449,4.428Z" transform="translate(-146.987 0)" fill="#eb7e2d"/>
</svg>
